<?xml version="1.0" encoding="utf-8"?>

<!DOCTYPE svg PUBLIC "-//W3C//DTD SVG 1.1//EN" "http://www.w3.org/Graphics/SVG/1.1/DTD/svg11.dtd">
<svg version="1.1" id="Layer_1" xmlns="http://www.w3.org/2000/svg" xmlns:xlink="http://www.w3.org/1999/xlink" x="0px" y="0px"
	 viewBox="0 0 813.144 1655.7363" enable-background="new 0 0 813.144 1655.7363" xml:space="preserve">
<g>
	<path fill="#D01891" d="M750.6354,910.9297c0.5186-0.9211,1.0085-1.8674,1.4744-2.8348l-4.5359-0.2268L750.6354,910.9297z"/>
	<path fill="#0EB3A4" d="M744.672,919.2527c2.2618-2.5139,4.2562-5.2897,5.9634-8.3229l-3.0615-3.0616L744.672,919.2527z"/>
	<path fill="#EC752E" d="M757.3875,889.2866c0.5316-5.027,0.4226-10.1055-0.2682-15.1217l-13.5454,5.7033L757.3875,889.2866z"/>
	<path fill="#9E58A2" d="M747.5739,907.8682l4.5359,0.2268c1.6726-3.474,3.0159-7.2329,3.988-11.2813
		c0.5995-2.4857,1.0225-5.0001,1.2897-7.5272l-13.8136-9.4184L747.5739,907.8682z"/>
	<polygon fill="#0461C8" points="748.3333,841.2041 745.3766,830.9648 737.5739,833.8682 	"/>
	<path fill="#0BA251" d="M743.5739,879.8682l13.5454-5.7033c-0.4443-3.2257-1.1235-6.4257-2.0313-9.568l-6.7548-23.3928
		l-10.7594-7.3359L743.5739,879.8682z"/>
	<polygon fill="#3C4192" points="745.3766,830.9648 732.6974,787.0546 737.5739,833.8682 	"/>
	<polygon fill="#B261BD" points="743.5739,879.8682 737.5739,833.8682 706.5739,868.8682 	"/>
	<path fill="#FCD23D" d="M709.5739,909.8682l11.9597,23.4411c1.3594-0.3934,2.73-0.8334,4.1179-1.3463
		c7.5981-2.8084,13.9762-7.1039,19.0205-12.7103l2.9019-11.3845L709.5739,909.8682z"/>
	<polygon fill="#FCD23D" points="732.2094,785.3643 717.924,735.8912 698.5739,738.8682 	"/>
	<polygon fill="#E4282E" points="737.5739,833.8682 732.6974,787.0546 732.4327,786.1377 710.5739,827.8682 	"/>
	<polygon fill="#87E7E3" points="703.5739,781.8682 732.3458,785.8367 732.2094,785.3643 698.5739,738.8682 	"/>
	<polygon fill="#DE4F9B" points="747.5739,907.8682 743.5739,879.8682 709.5739,909.8682 	"/>
	<polygon fill="#0BA251" points="717.924,735.8912 713.6754,721.1779 698.5739,738.8682 	"/>
	<polygon fill="#3C4192" points="709.5739,909.8682 743.5739,879.8682 706.5739,868.8682 	"/>
	<polygon fill="#FCD23D" points="737.5739,833.8682 710.5739,827.8682 706.5739,868.8682 	"/>
	<polygon fill="#87E7E3" points="707.7383,700.6166 693.1643,650.1445 686.5739,702.8682 	"/>
	<path fill="#9E58A2" d="M699.8812,934.5844c6.6913,1.289,13.9365,0.9581,21.6523-1.2751l-11.9597-23.4411L699.8812,934.5844z"/>
	<polygon fill="#9E58A2" points="710.5739,827.8682 732.4327,786.1377 732.3458,785.8367 703.5739,781.8682 	"/>
	<polygon fill="#FCD23D" points="698.5739,738.8682 713.6754,721.1779 707.7383,700.6166 686.5739,702.8682 	"/>
	<polygon fill="#FCD23D" points="686.5739,702.8682 693.1643,650.1445 692.5525,648.0257 663.5739,680.8682 	"/>
	<polygon fill="#07ACEA" points="691.746,645.2327 678.8761,600.6621 655.5739,612.8682 	"/>
	<polygon fill="#07ACEA" points="651.0742,1545.6954 649.8683,1536.6465 647.5739,1544.8682 	"/>
	<polygon fill="#85DC34" points="663.5739,819.8682 703.5739,781.8682 659.5739,788.8682 	"/>
	<path fill="#B261BD" d="M674.7788,919.8849c7.0582,7.6772,15.5094,12.8514,25.1024,14.6994l9.6926-24.7162L674.7788,919.8849z"/>
	<polygon fill="#0461C8" points="706.5739,868.8682 654.9821,877.9194 656.3917,882.3907 709.5739,909.8682 	"/>
	<polygon fill="#85DC34" points="706.5739,868.8682 710.5739,827.8682 663.5739,819.8682 	"/>
	<polygon fill="#87E7E3" points="710.5739,827.8682 703.5739,781.8682 663.5739,819.8682 	"/>
	<polygon fill="#07ACEA" points="703.5739,781.8682 698.5739,738.8682 659.5739,788.8682 	"/>
	<polygon fill="#D01891" points="663.5739,819.8682 652.025,868.5385 654.9821,877.9194 706.5739,868.8682 	"/>
	<path fill="#FDCD19" d="M656.3917,882.3907l4.0101,12.7214c1.3279,4.2328,3.0431,8.3688,5.2701,12.2144
		c2.7002,4.6954,5.7483,8.9053,9.1068,12.5584l34.795-10.0168L656.3917,882.3907z"/>
	<polygon fill="#46BAEB" points="663.5739,680.8682 692.5525,648.0257 692.3297,647.2543 664.5739,655.8682 	"/>
	<polygon fill="#EC752E" points="670.6835,572.2893 664.3422,550.3286 642.5739,552.8682 	"/>
	<polygon fill="#FDDA65" points="659.5739,788.8682 698.5739,738.8682 645.5739,748.8682 	"/>
	<polygon fill="#3C4192" points="655.5468,519.8682 652.6827,509.9497 643.5739,519.8682 	"/>
	<polygon fill="#87E7E3" points="657.2924,525.9136 655.5468,519.8682 643.5739,519.8682 	"/>
	<polygon fill="#FCD23D" points="642.5739,552.8682 664.3422,550.3286 657.2924,525.9136 643.5739,519.8682 	"/>
	<polygon fill="#0BA251" points="651.5463,1549.2378 651.0742,1545.6954 647.5739,1544.8682 	"/>
	<polygon fill="#0EB3A4" points="655.5739,612.8682 678.8761,600.6621 670.6835,572.2893 642.5739,552.8682 	"/>
	<polygon fill="#46BAEB" points="698.5739,738.8682 686.5739,702.8682 645.5739,748.8682 	"/>
	<path fill="#DE4F9B" d="M655.0941,1576.2023c-0.0532-0.5391-0.0981-1.0769-0.17-1.6184l-3.3778-25.3461l-3.9724-4.3696
		L655.0941,1576.2023z"/>
	<polygon fill="#E4282E" points="664.5739,655.8682 692.3297,647.2543 691.746,645.2327 655.5739,612.8682 	"/>
	<polygon fill="#B261BD" points="652.6827,509.9497 646.2904,487.8123 643.5739,519.8682 	"/>
	<polygon fill="#0461C8" points="686.5739,702.8682 663.5739,680.8682 645.5739,748.8682 	"/>
	<polygon fill="#0461C8" points="643.5739,519.8682 646.2904,487.8123 639.451,464.1262 620.5739,470.8682 	"/>
	<polygon fill="#0EB3A4" points="655.5739,612.8682 642.5739,552.8682 616.5739,605.8682 	"/>
	<path fill="#0461C8" d="M606.5739,1599.8682l46.4138-4.3787c1.9839-6.0231,2.7706-12.5509,2.1064-19.2872l-7.5203-31.3341
		L606.5739,1599.8682z"/>
	<polygon fill="#D01891" points="645.5739,748.8682 622.183,773.8721 624.6029,781.5487 659.5739,788.8682 	"/>
	<polygon fill="#0BA251" points="634.1705,445.8386 624.8722,413.6371 602.5739,412.8682 	"/>
	<polygon fill="#87E7E3" points="624.8722,413.6371 619.5311,395.1401 602.5739,412.8682 	"/>
	<polygon fill="#B261BD" points="616.7357,1288.03 616.1886,1283.924 613.5739,1284.8682 	"/>
	<polygon fill="#FDCD19" points="603.5739,1311.8682 620.767,1318.2792 616.7357,1288.03 613.5739,1284.8682 	"/>
	<polygon fill="#EC752E" points="628.3085,1374.8682 626.8302,1363.7761 613.5739,1374.8682 	"/>
	<polygon fill="#85DC34" points="637.0741,821.1104 652.025,868.5385 663.5739,819.8682 	"/>
	<polygon fill="#9E58A2" points="659.5739,788.8682 624.6029,781.5487 626.8229,788.5907 663.5739,819.8682 	"/>
	<polygon fill="#FCD23D" points="626.8229,788.5907 637.0741,821.1104 663.5739,819.8682 	"/>
	<polygon fill="#FCD23D" points="663.5739,680.8682 611.1824,738.975 612.3177,742.5765 645.5739,748.8682 	"/>
	<polygon fill="#D01891" points="602.5739,680.8682 606.9772,725.6349 611.1824,738.975 663.5739,680.8682 	"/>
	<polygon fill="#9E58A2" points="663.5739,680.8682 664.5739,655.8682 615.5739,649.8682 	"/>
	<polygon fill="#87E7E3" points="664.5739,655.8682 655.5739,612.8682 615.5739,649.8682 	"/>
	<polygon fill="#DE4F9B" points="608.5739,1546.8682 606.5739,1599.8682 647.5739,1544.8682 	"/>
	<polygon fill="#46BAEB" points="602.5739,680.8682 663.5739,680.8682 615.5739,649.8682 	"/>
	<polygon fill="#87E7E3" points="647.5739,1544.8682 649.8683,1536.6465 644.8839,1499.2449 603.5739,1491.8682 	"/>
	<polygon fill="#87E7E3" points="644.8839,1499.2449 640.0155,1462.7147 603.5739,1491.8682 	"/>
	<polygon fill="#B261BD" points="613.5739,1374.8682 626.8302,1363.7761 620.767,1318.2792 603.5739,1311.8682 	"/>
	<polygon fill="#FCD23D" points="647.5739,1544.8682 603.5739,1491.8682 608.5739,1546.8682 	"/>
	<polygon fill="#9E58A2" points="639.4969,1458.8228 634.7141,1422.9343 604.5739,1449.8682 	"/>
	<path fill="#FDCD19" d="M606.5739,1599.8682l29.4214,18.9604c7.8999-5.778,13.8958-13.9377,16.9924-23.3391L606.5739,1599.8682z"/>
	<polygon fill="#07ACEA" points="615.5739,649.8682 655.5739,612.8682 616.5739,605.8682 	"/>
	<path fill="#FDCD19" d="M602.5739,412.8682l16.9573-17.728l-2.869-9.936c-1.8519-6.4172-4.2948-12.5376-7.2272-18.3359h-4.8611
		L602.5739,412.8682z"/>
	<polygon fill="#46BAEB" points="620.5739,470.8682 639.451,464.1262 634.1705,445.8386 602.5739,412.8682 	"/>
	<polygon fill="#FCD23D" points="604.5739,1449.8682 634.7141,1422.9343 632.5029,1406.3424 601.5739,1403.8682 	"/>
	<polygon fill="#85DC34" points="630.2369,1389.3386 628.3085,1374.8682 613.5739,1374.8682 	"/>
	<polygon fill="#B261BD" points="643.5739,519.8682 620.5739,470.8682 617.5739,522.8682 	"/>
	<path fill="#FDDA65" d="M609.4349,366.8682c-1.0972-2.1694-2.2607-4.2943-3.4966-6.3677l-1.3645,6.3677H609.4349z"/>
	<polygon fill="#FCD23D" points="616.1886,1283.924 614.7715,1273.291 613.5739,1284.8682 	"/>
	<path fill="#B261BD" d="M609.9828,1627.8209c9.7675-0.3486,18.7017-3.6453,26.0125-8.9923l-29.4214-18.9604L609.9828,1627.8209z"/>
	<polygon fill="#843895" points="601.5739,1403.8682 632.5029,1406.3424 630.2369,1389.3386 613.5739,1374.8682 	"/>
	<polygon fill="#07ACEA" points="642.5739,552.8682 643.5739,519.8682 617.5739,522.8682 	"/>
	<polygon fill="#85DC34" points="616.5739,605.8682 642.5739,552.8682 600.5739,548.8682 	"/>
	<polygon fill="#0461C8" points="612.3177,742.5765 622.183,773.8721 645.5739,748.8682 	"/>
	<polygon fill="#0BA251" points="603.5739,1491.8682 640.0155,1462.7147 639.4969,1458.8228 604.5739,1449.8682 	"/>
	<polygon fill="#B261BD" points="600.5739,548.8682 642.5739,552.8682 617.5739,522.8682 	"/>
	<path fill="#D01891" d="M564.5739,553.8682l-3.2271,32.271c1.1538,0.5313,2.1331,1.5157,2.6122,3.0308l1.953,6.1958
		l34.6619-46.4976L564.5739,553.8682z"/>
	<polygon fill="#0461C8" points="608.5739,1546.8682 603.5739,1491.8682 568.5739,1544.8682 	"/>
	<polygon fill="#EC752E" points="566.5739,1590.8682 606.5739,1599.8682 608.5739,1546.8682 	"/>
	<polygon fill="#B261BD" points="594.2679,685.3178 606.9772,725.6349 602.5739,680.8682 	"/>
	<polygon fill="#85DC34" points="563.5739,1238.8682 603.2151,1186.5754 602.0803,1178.0602 553.5739,1184.8682 	"/>
	<polygon fill="#DE4F9B" points="613.5739,1374.8682 603.5739,1311.8682 568.5739,1358.8682 	"/>
	<polygon fill="#B261BD" points="613.5739,1284.8682 563.5739,1238.8682 563.5739,1286.8682 	"/>
	<polygon fill="#07ACEA" points="579.5802,1009.226 576.7621,988.0797 557.5739,1006.8682 	"/>
	<polygon fill="#D01891" points="585.6849,1055.0348 583.6937,1040.0923 568.5739,1053.8682 	"/>
	<polygon fill="#87E7E3" points="600.5739,548.8682 565.912,595.3657 568.6932,604.1882 616.5739,605.8682 	"/>
	<polygon fill="#87E7E3" points="616.5739,605.8682 577.3146,631.5377 580.9531,643.0798 615.5739,649.8682 	"/>
	<polygon fill="#843895" points="596.5209,1136.3441 591.4464,1098.2665 563.5739,1105.8682 	"/>
	<polygon fill="#0BA251" points="587.3846,1067.7881 585.6849,1055.0348 568.5739,1053.8682 	"/>
	<polygon fill="#07ACEA" points="613.5739,1284.8682 614.7715,1273.291 608.8899,1229.1576 563.5739,1238.8682 	"/>
	<polygon fill="#9E58A2" points="608.8899,1229.1576 603.2151,1186.5754 563.5739,1238.8682 	"/>
	<polygon fill="#0461C8" points="620.5739,470.8682 602.5739,412.8682 567.5739,465.8682 	"/>
	<polygon fill="#FCD23D" points="617.5739,522.8682 620.5739,470.8682 572.5739,508.8682 	"/>
	<polygon fill="#843895" points="572.5739,508.8682 620.5739,470.8682 567.5739,465.8682 	"/>
	<path fill="#0BA251" d="M604.5739,366.8682l1.3645-6.3677c-5.772-9.6841-13.0151-18.2913-21.3896-25.5624l-19.9749,6.9301
		L604.5739,366.8682z"/>
	<polygon fill="#843895" points="563.5739,1105.8682 591.4464,1098.2665 587.3846,1067.7881 568.5739,1053.8682 	"/>
	<path fill="#E4282E" d="M577.0184,1627.8682h31.2471c0.5767,0,1.1461-0.0269,1.7173-0.0472l-3.4089-27.9528L577.0184,1627.8682z"/>
	<polygon fill="#D01891" points="568.6932,604.1882 577.3146,631.5377 616.5739,605.8682 	"/>
	<polygon fill="#0BA251" points="568.6543,927.2416 567.799,920.8232 562.5739,921.8682 	"/>
	<polygon fill="#9E58A2" points="568.5739,1544.8682 566.5739,1590.8682 608.5739,1546.8682 	"/>
	<polygon fill="#0461C8" points="572.5739,508.8682 600.5739,548.8682 617.5739,522.8682 	"/>
	<path fill="#FDCD19" d="M584.5487,334.9381c-6.3892-5.5472-13.4336-10.3119-20.9805-14.1863l1.0056,21.1163L584.5487,334.9381z"/>
	<polygon fill="#87E7E3" points="568.5739,1544.8682 603.5739,1491.8682 553.5739,1506.8682 	"/>
	<polygon fill="#46BAEB" points="568.5739,1053.8682 583.6937,1040.0923 579.5802,1009.226 557.5739,1006.8682 	"/>
	<polygon fill="#E4282E" points="615.5739,649.8682 580.9531,643.0798 587.8612,664.994 602.5739,680.8682 	"/>
	<polygon fill="#843895" points="567.5739,465.8682 602.5739,412.8682 555.5739,421.8682 	"/>
	<polygon fill="#FDCD19" points="602.5739,412.8682 604.5739,366.8682 559.5739,377.8682 	"/>
	<polygon fill="#D01891" points="603.5739,1491.8682 604.5739,1449.8682 565.5739,1453.8682 	"/>
	<polygon fill="#E4282E" points="601.5739,1403.8682 613.5739,1374.8682 568.5739,1358.8682 	"/>
	<polygon fill="#FDDA65" points="603.5739,1311.8682 613.5739,1284.8682 563.5739,1286.8682 	"/>
	<polygon fill="#B261BD" points="604.5739,1449.8682 601.5739,1403.8682 560.5739,1406.8682 	"/>
	<polygon fill="#D01891" points="565.5739,1453.8682 604.5739,1449.8682 560.5739,1406.8682 	"/>
	<polygon fill="#EC752E" points="601.058,1170.3893 597.4313,1143.1753 563.5739,1144.8682 	"/>
	<polygon fill="#B261BD" points="568.5739,1358.8682 603.5739,1311.8682 553.5739,1320.8682 	"/>
	<polygon fill="#85DC34" points="557.5739,1006.8682 576.7621,988.0797 572.5795,956.6956 553.5739,954.8682 	"/>
	<polygon fill="#9E58A2" points="567.799,920.8232 563.2991,887.0577 562.5739,921.8682 	"/>
	<polygon fill="#843895" points="553.5739,1184.8682 602.0803,1178.0602 601.058,1170.3893 563.5739,1144.8682 	"/>
	<polygon fill="#07ACEA" points="563.5739,1144.8682 597.4313,1143.1753 596.5209,1136.3441 563.5739,1105.8682 	"/>
	<polygon fill="#07ACEA" points="553.5739,954.8682 572.5795,956.6956 568.6543,927.2416 562.5739,921.8682 	"/>
	<polygon fill="#B261BD" points="566.5739,1590.8682 568.2184,1627.8682 577.0184,1627.8682 606.5739,1599.8682 	"/>
	<polygon fill="#D01891" points="560.5739,1406.8682 601.5739,1403.8682 568.5739,1358.8682 	"/>
	<polygon fill="#0BA251" points="564.5739,553.8682 600.5739,548.8682 572.5739,508.8682 	"/>
	<polygon fill="#B261BD" points="587.8612,664.994 594.2679,685.3178 602.5739,680.8682 	"/>
	<polygon fill="#85DC34" points="555.5739,421.8682 602.5739,412.8682 559.5739,377.8682 	"/>
	<polygon fill="#D01891" points="553.5739,1506.8682 603.5739,1491.8682 565.5739,1453.8682 	"/>
	<polygon fill="#FDDA65" points="604.5739,366.8682 564.5739,341.8682 559.5739,377.8682 	"/>
	<polygon fill="#0461C8" points="553.5739,1320.8682 603.5739,1311.8682 563.5739,1286.8682 	"/>
	<path fill="#3C4192" d="M541.7766,312.4635c-7.0249-1.808-14.3027-2.9127-21.7472-3.2288l8.5444,25.6334L541.7766,312.4635z"/>
	<path fill="#0EB3A4" d="M534.4945,174.4832c0.7766-5.7262,1.1863-11.5688,1.1863-17.5081c0-0.8582-0.0157-1.7126-0.0325-2.5669
		l-13.0745,8.46L534.4945,174.4832z"/>
	<polygon fill="#0BA251" points="563.5739,1238.8682 553.5739,1184.8682 523.5739,1189.8682 	"/>
	<polygon fill="#0461C8" points="562.5739,921.8682 563.2991,887.0577 561.5668,874.0593 521.5739,877.8682 	"/>
	<path fill="#FDDA65" d="M564.5739,341.8682l-1.0056-21.1163c-6.887-3.5355-14.1868-6.3312-21.7916-8.2883l-13.2028,22.4047
		L564.5739,341.8682z"/>
	<polygon fill="#0EB3A4" points="565.5739,1453.8682 513.5739,1490.8682 553.5739,1506.8682 	"/>
	<path fill="#0BA251" d="M518.5739,1597.8682l2.9117,24.7498c2.4377,1.2599,4.9957,2.3112,7.6517,3.1343l37.4365-34.884
		L518.5739,1597.8682z"/>
	<path fill="#07ACEA" d="M529.1373,1625.7522c4.4203,1.3699,9.1042,2.116,13.9478,2.116h25.1333l-1.6445-37L529.1373,1625.7522z"/>
	<polygon fill="#D01891" points="526.5739,1558.8682 566.5739,1590.8682 568.5739,1544.8682 	"/>
	<polygon fill="#FDCD19" points="568.5739,1358.8682 524.5739,1364.8682 560.5739,1406.8682 	"/>
	<polygon fill="#0BA251" points="563.5739,1105.8682 568.5739,1053.8682 509.5739,1087.8682 	"/>
	<polygon fill="#D01891" points="554.7568,822.9592 550.1583,788.4542 512.5739,817.8682 	"/>
	<polygon fill="#9E58A2" points="561.5668,874.0593 556.9718,839.5805 521.5739,877.8682 	"/>
	<polygon fill="#B261BD" points="521.5739,877.8682 556.9718,839.5805 554.7568,822.9592 512.5739,817.8682 	"/>
	<polygon fill="#3C4192" points="548.746,771.4943 549.687,740.0723 522.5739,743.8682 	"/>
	<polygon fill="#FDDA65" points="522.5739,743.8682 549.687,740.0723 550.2374,721.6962 519.5739,700.8682 	"/>
	<polygon fill="#D01891" points="510.5739,523.8682 564.5739,553.8682 572.5739,508.8682 	"/>
	<polygon fill="#87E7E3" points="572.5739,508.8682 567.5739,465.8682 510.5739,464.8682 	"/>
	<polygon fill="#FDCD19" points="510.5739,523.8682 572.5739,508.8682 510.5739,464.8682 	"/>
	<polygon fill="#46BAEB" points="551.4601,680.8646 552.5422,644.732 517.5739,658.8682 	"/>
	<polygon fill="#FDDA65" points="519.5739,700.8682 550.9465,698.0161 551.4601,680.8646 517.5739,658.8682 	"/>
	<polygon fill="#FDCD19" points="550.2374,721.6962 550.9465,698.0161 519.5739,700.8682 	"/>
	<polygon fill="#FDDA65" points="557.5739,1006.8682 553.5739,954.8682 520.5739,967.8682 	"/>
	<polygon fill="#9E58A2" points="524.5739,1364.8682 525.5739,1402.8682 560.5739,1406.8682 	"/>
	<path fill="#3C4192" d="M525.5739,197.8682l3.3988,0.2832c2.5549-7.5977,4.4161-15.5127,5.5219-23.6682l-11.9207-11.615
		L525.5739,197.8682z"/>
	<polygon fill="#FDCD19" points="563.5739,1286.8682 563.5739,1238.8682 509.5739,1279.8682 	"/>
	<path fill="#FDDA65" d="M508.5739,562.8682l45.3286,36.4407l0.2627-8.7694c0.1194-4.0646,4.2373-5.7556,7.1816-4.4003
		l3.2271-32.271L508.5739,562.8682z"/>
	<polygon fill="#843895" points="560.5739,1406.8682 525.5739,1402.8682 565.5739,1453.8682 	"/>
	<polygon fill="#9E58A2" points="568.5739,1053.8682 557.5739,1006.8682 507.5739,1062.8682 	"/>
	<polygon fill="#FCD23D" points="509.5739,1087.8682 568.5739,1053.8682 507.5739,1062.8682 	"/>
	<polygon fill="#85DC34" points="515.5739,602.8682 553.7699,603.7363 553.9025,599.3088 508.5739,562.8682 	"/>
	<path fill="#0EB3A4" d="M529.2823,116.753c-2.7983-8.5425-6.4585-16.694-10.8872-24.347l-0.8213,25.4622L529.2823,116.753z"/>
	<polygon fill="#FDDA65" points="562.5739,921.8682 521.5739,877.8682 512.5739,911.8682 	"/>
	<polygon fill="#FDCD19" points="511.5739,1455.8682 513.5739,1490.8682 565.5739,1453.8682 	"/>
	<polygon fill="#3C4192" points="565.5739,1453.8682 525.5739,1402.8682 511.5739,1455.8682 	"/>
	<polygon fill="#85DC34" points="567.5739,465.8682 555.5739,421.8682 510.5739,464.8682 	"/>
	<polygon fill="#FDCD19" points="553.5739,1506.8682 526.5739,1558.8682 568.5739,1544.8682 	"/>
	<polygon fill="#85DC34" points="528.5739,1327.8682 568.5739,1358.8682 553.5739,1320.8682 	"/>
	<polygon fill="#0BA251" points="528.5739,1327.8682 524.5739,1364.8682 568.5739,1358.8682 	"/>
	<polygon fill="#DE4F9B" points="518.5739,996.8682 557.5739,1006.8682 520.5739,967.8682 	"/>
	<polygon fill="#DE4F9B" points="512.5739,817.8682 550.1583,788.4542 549.548,783.8739 513.5739,791.8682 	"/>
	<polygon fill="#07ACEA" points="563.5739,1144.8682 563.5739,1105.8682 509.5739,1137.8682 	"/>
	<polygon fill="#843895" points="507.5739,1236.8682 563.5739,1238.8682 523.5739,1189.8682 	"/>
	<polygon fill="#9E58A2" points="509.5739,1279.8682 563.5739,1238.8682 507.5739,1236.8682 	"/>
	<polygon fill="#B261BD" points="564.5739,341.8682 528.5739,334.8682 559.5739,377.8682 	"/>
	<polygon fill="#3C4192" points="507.5739,1062.8682 557.5739,1006.8682 518.5739,996.8682 	"/>
	<polygon fill="#FDCD19" points="552.9508,631.0915 553.7699,603.7363 515.5739,602.8682 	"/>
	<polygon fill="#87E7E3" points="518.5739,1597.8682 566.5739,1590.8682 526.5739,1558.8682 	"/>
	<polygon fill="#0EB3A4" points="555.5739,421.8682 559.5739,377.8682 510.5739,417.8682 	"/>
	<path fill="#0461C8" d="M526.3182,205.3123c0.9512-2.3542,1.8403-4.7401,2.6544-7.1609l-3.3988-0.2832L526.3182,205.3123z"/>
	<polygon fill="#FDDA65" points="553.5739,1184.8682 563.5739,1144.8682 509.5739,1137.8682 	"/>
	<polygon fill="#0461C8" points="523.5739,1189.8682 553.5739,1184.8682 509.5739,1137.8682 	"/>
	<polygon fill="#0461C8" points="517.5739,658.8682 552.5422,644.732 552.9508,631.0915 515.5739,602.8682 	"/>
	<polygon fill="#3C4192" points="508.5739,562.8682 564.5739,553.8682 510.5739,523.8682 	"/>
	<polygon fill="#87E7E3" points="559.5739,377.8682 509.5739,374.8682 510.5739,417.8682 	"/>
	<polygon fill="#0461C8" points="563.5739,1286.8682 509.5739,1279.8682 553.5739,1320.8682 	"/>
	<polygon fill="#87E7E3" points="509.5739,1279.8682 528.5739,1327.8682 553.5739,1320.8682 	"/>
	<polygon fill="#B261BD" points="559.5739,377.8682 528.5739,334.8682 509.5739,374.8682 	"/>
	<polygon fill="#85DC34" points="553.5739,954.8682 562.5739,921.8682 512.5739,911.8682 	"/>
	<polygon fill="#843895" points="509.5739,1137.8682 563.5739,1105.8682 509.5739,1087.8682 	"/>
	<path fill="#9E58A2" d="M532.0267,126.3916c-0.7927-3.2632-1.7087-6.4777-2.7444-9.6385l-11.7085,1.1151L532.0267,126.3916z"/>
	<polygon fill="#0BA251" points="510.5739,464.8682 555.5739,421.8682 510.5739,417.8682 	"/>
	<polygon fill="#0EB3A4" points="513.5739,791.8682 549.548,783.8739 548.5905,776.6888 548.746,771.4943 522.5739,743.8682 	"/>
	<polygon fill="#3C4192" points="513.5739,1490.8682 526.5739,1558.8682 553.5739,1506.8682 	"/>
	<polygon fill="#DE4F9B" points="520.5739,967.8682 553.5739,954.8682 512.5739,911.8682 	"/>
	<path fill="#87E7E3" d="M522.5739,162.8682l13.0745-8.46c-0.188-9.635-1.4333-19.0095-3.6216-28.0166l-14.4529-8.5234
		L522.5739,162.8682z"/>
	<polygon fill="#843895" points="477.5739,1414.8682 482.5739,1449.8682 511.5739,1455.8682 	"/>
	<polygon fill="#87E7E3" points="517.5739,658.8682 515.5739,602.8682 472.5739,612.8682 	"/>
	<polygon fill="#DE4F9B" points="472.5739,1013.8682 507.5739,1062.8682 518.5739,996.8682 	"/>
	<path fill="#87E7E3" d="M517.5739,117.8682l0.8213-25.4622c-3.9865-6.8889-8.593-13.373-13.7402-19.3811l-25.0811,28.8433
		L517.5739,117.8682z"/>
	<polygon fill="#87E7E3" points="512.5739,911.8682 483.5739,927.8682 520.5739,967.8682 	"/>
	<polygon fill="#FDCD19" points="521.5739,877.8682 512.5739,817.8682 478.5739,871.8682 	"/>
	<polygon fill="#DE4F9B" points="513.5739,791.8682 522.5739,743.8682 476.5739,779.8682 	"/>
	<polygon fill="#85DC34" points="522.5739,162.8682 517.5739,117.8682 472.5739,155.8682 	"/>
	<polygon fill="#0BA251" points="509.5739,1137.8682 468.5739,1179.8682 523.5739,1189.8682 	"/>
	<polygon fill="#FDCD19" points="524.5739,1364.8682 469.7412,1374.9208 470.172,1378.3459 525.5739,1402.8682 	"/>
	<polygon fill="#0BA251" points="525.5739,1402.8682 477.5739,1414.8682 511.5739,1455.8682 	"/>
	<polygon fill="#B261BD" points="513.5739,1490.8682 487.6473,1517.3031 491.7806,1550.1698 526.5739,1558.8682 	"/>
	<path fill="#FDCD19" d="M526.5739,1558.8682l-31.3506,18.6769l1.1481,9.1287c0.2228,1.7712,0.5532,3.5044,0.9633,5.2039
		l21.2393,5.9906L526.5739,1558.8682z"/>
	<polygon fill="#46BAEB" points="466.5739,1323.8682 524.5739,1364.8682 528.5739,1327.8682 	"/>
	<polygon fill="#3C4192" points="509.5739,1279.8682 466.5739,1323.8682 528.5739,1327.8682 	"/>
	<path fill="#07ACEA" d="M528.5739,334.8682l-8.5444-25.6334c-1.4937-0.0634-2.9934-0.0978-4.4994-0.0978h-16.8376l-25.1185,25.7312
		H528.5739z"/>
	<polygon fill="#3C4192" points="528.5739,334.8682 473.5739,334.8682 509.5739,374.8682 	"/>
	<path fill="#0EB3A4" d="M476.5339,265.4971c10.8727-7.0237,20.6188-15.6389,28.9169-25.5128l-32.877,2.8839L476.5339,265.4971z"/>
	<path fill="#87E7E3" d="M472.5739,242.8682l32.877-2.8839c8.6632-10.3085,15.7428-21.9894,20.8674-34.672l-0.7444-7.4441
		L472.5739,242.8682z"/>
	<polygon fill="#87E7E3" points="522.5739,743.8682 519.5739,700.8682 469.5739,744.8682 	"/>
	<polygon fill="#DE4F9B" points="525.5739,1402.8682 470.172,1378.3459 473.0634,1401.3364 477.5739,1414.8682 	"/>
	<polygon fill="#85DC34" points="525.5739,197.8682 522.5739,162.8682 465.5739,188.8682 	"/>
	<polygon fill="#FCD23D" points="472.5739,242.8682 525.5739,197.8682 465.5739,188.8682 	"/>
	<path fill="#0BA251" d="M479.5739,101.8682l25.0811-28.8433c-3.2612-3.8066-6.7412-7.4192-10.4187-10.8223l-26.6624,6.6655
		L479.5739,101.8682z"/>
	<polygon fill="#87E7E3" points="478.5739,871.8682 512.5739,817.8682 480.5739,815.8682 	"/>
	<polygon fill="#B261BD" points="523.5739,1189.8682 484.5739,1238.8682 507.5739,1236.8682 	"/>
	<polygon fill="#843895" points="468.5739,1179.8682 484.5739,1238.8682 523.5739,1189.8682 	"/>
	<polygon fill="#07ACEA" points="466.5739,1323.8682 465.812,1343.6768 469.7412,1374.9208 524.5739,1364.8682 	"/>
	<polygon fill="#FDDA65" points="491.7806,1550.1698 495.2233,1577.545 526.5739,1558.8682 	"/>
	<polygon fill="#DE4F9B" points="509.5739,1087.8682 472.5739,1108.8682 509.5739,1137.8682 	"/>
	<polygon fill="#843895" points="464.5739,519.8682 510.5739,523.8682 510.5739,464.8682 	"/>
	<polygon fill="#0EB3A4" points="484.3977,1491.4636 487.6473,1517.3031 513.5739,1490.8682 	"/>
	<polygon fill="#85DC34" points="465.5739,651.8682 517.5739,658.8682 472.5739,612.8682 	"/>
	<polygon fill="#843895" points="519.5739,700.8682 517.5739,658.8682 463.5739,688.8682 	"/>
	<polygon fill="#FDDA65" points="476.5739,779.8682 522.5739,743.8682 469.5739,744.8682 	"/>
	<polygon fill="#9E58A2" points="465.5739,188.8682 522.5739,162.8682 472.5739,155.8682 	"/>
	<polygon fill="#FDCD19" points="472.5739,1013.8682 468.5739,1050.8682 507.5739,1062.8682 	"/>
	<polygon fill="#843895" points="510.5739,464.8682 510.5739,417.8682 477.5739,457.8682 	"/>
	<path fill="#87E7E3" d="M497.3346,1591.8776c1.3444,5.5713,3.6616,10.7291,6.7585,15.2996l14.4807-9.309L497.3346,1591.8776z"/>
	<path fill="#3C4192" d="M504.0931,1607.1771c4.4141,6.5142,10.4033,11.8286,17.3925,15.4408l-2.9117-24.7498L504.0931,1607.1771z"
		/>
	<polygon fill="#87E7E3" points="512.5739,911.8682 521.5739,877.8682 478.5739,871.8682 	"/>
	<polygon fill="#85DC34" points="464.5739,519.8682 510.5739,464.8682 477.5739,457.8682 	"/>
	<path fill="#87E7E3" d="M467.5739,68.8682l26.6624-6.6655c-8.2693-7.6527-17.5411-14.2349-27.5979-19.5305L467.5739,68.8682z"/>
	<polygon fill="#46BAEB" points="520.5739,967.8682 464.5739,970.8682 518.5739,996.8682 	"/>
	<polygon fill="#0461C8" points="507.5739,1236.8682 484.5739,1238.8682 509.5739,1279.8682 	"/>
	<polygon fill="#3C4192" points="469.5739,744.8682 519.5739,700.8682 463.5739,688.8682 	"/>
	<polygon fill="#46BAEB" points="483.5739,927.8682 464.5739,970.8682 520.5739,967.8682 	"/>
	<polygon fill="#46BAEB" points="474.5739,545.8682 508.5739,562.8682 510.5739,523.8682 	"/>
	<polygon fill="#DE4F9B" points="509.5739,374.8682 464.5739,384.8682 510.5739,417.8682 	"/>
	<polygon fill="#843895" points="498.6924,309.137 476.5428,309.137 473.5739,334.8682 	"/>
	<polygon fill="#FDDA65" points="515.5739,602.8682 508.5739,562.8682 472.5739,612.8682 	"/>
	<polygon fill="#87E7E3" points="463.5739,688.8682 517.5739,658.8682 465.5739,651.8682 	"/>
	<polygon fill="#843895" points="517.5739,117.8682 479.5739,101.8682 472.5739,155.8682 	"/>
	<polygon fill="#85DC34" points="464.5739,970.8682 472.5739,1013.8682 518.5739,996.8682 	"/>
	<polygon fill="#85DC34" points="482.5739,1449.8682 513.5739,1490.8682 511.5739,1455.8682 	"/>
	<polygon fill="#46BAEB" points="484.5739,1238.8682 472.5739,1274.8682 509.5739,1279.8682 	"/>
	<polygon fill="#0BA251" points="472.5739,1274.8682 466.5739,1323.8682 509.5739,1279.8682 	"/>
	<polygon fill="#87E7E3" points="510.5739,417.8682 465.5739,431.8682 477.5739,457.8682 	"/>
	<polygon fill="#B261BD" points="512.5739,817.8682 513.5739,791.8682 480.5739,815.8682 	"/>
	<polygon fill="#DE4F9B" points="462.5739,1140.8682 468.5739,1179.8682 509.5739,1137.8682 	"/>
	<polygon fill="#0461C8" points="482.5739,1449.8682 479.9396,1456.0146 484.3977,1491.4636 513.5739,1490.8682 	"/>
	<polygon fill="#DE4F9B" points="478.5739,871.8682 483.5739,927.8682 512.5739,911.8682 	"/>
	<polygon fill="#DE4F9B" points="480.5739,815.8682 513.5739,791.8682 476.5739,779.8682 	"/>
	<polygon fill="#EC752E" points="472.5739,612.8682 508.5739,562.8682 474.5739,545.8682 	"/>
	<polygon fill="#07ACEA" points="509.5739,374.8682 473.5739,334.8682 464.5739,384.8682 	"/>
	<polygon fill="#0461C8" points="510.5739,417.8682 464.5739,384.8682 465.5739,431.8682 	"/>
	<polygon fill="#07ACEA" points="472.5739,1108.8682 462.5739,1140.8682 509.5739,1137.8682 	"/>
	<polygon fill="#0461C8" points="507.5739,1062.8682 468.5739,1050.8682 509.5739,1087.8682 	"/>
	<polygon fill="#07ACEA" points="468.5739,1050.8682 472.5739,1108.8682 509.5739,1087.8682 	"/>
	<polygon fill="#46BAEB" points="474.5739,545.8682 510.5739,523.8682 464.5739,519.8682 	"/>
	<polygon fill="#9E58A2" points="439.5739,518.8682 464.5739,519.8682 424.5739,468.8682 	"/>
	<path fill="#0461C8" d="M467.5739,68.8682l-0.9355-26.196c-5.6537-2.9771-11.554-5.5472-17.6642-7.671l-16.4003,21.8671
		L467.5739,68.8682z"/>
	<polygon fill="#0EB3A4" points="472.5739,1274.8682 457.5032,1277.6083 462.5062,1317.3899 466.5739,1323.8682 	"/>
	<polygon fill="#FCD23D" points="468.5739,1050.8682 434.286,1092.9933 434.4379,1094.2004 472.5739,1108.8682 	"/>
	<polygon fill="#87E7E3" points="419.5739,604.8682 472.5739,612.8682 419.5739,559.8682 	"/>
	<polygon fill="#FDDA65" points="472.5739,612.8682 474.5739,545.8682 419.5739,559.8682 	"/>
	<polygon fill="#FCD23D" points="424.5739,468.8682 464.5739,519.8682 477.5739,457.8682 	"/>
	<polygon fill="#0461C8" points="436.5739,822.8682 433.5739,875.8682 478.5739,871.8682 	"/>
	<path fill="#85DC34" d="M439.5739,248.8682l26.6328,22.6378c3.5415-1.8478,6.988-3.8517,10.3273-6.0089l-3.9601-22.6289
		L439.5739,248.8682z"/>
	<polygon fill="#D01891" points="473.5739,334.8682 476.5428,309.137 450.1016,309.137 433.5739,323.8682 	"/>
	<path fill="#9E58A2" d="M431.7848,283.614c4.7319-0.9368,9.3704-2.1312,13.901-3.5698l-14.1119-1.176L431.7848,283.614z"/>
	<polygon fill="#9E58A2" points="450.1016,309.137 432.9191,309.137 433.5739,323.8682 	"/>
	<polygon fill="#3C4192" points="472.5739,155.8682 479.5739,101.8682 427.5739,144.8682 	"/>
	<polygon fill="#DE4F9B" points="427.5739,144.8682 479.5739,101.8682 425.5739,105.8682 	"/>
	<polygon fill="#FDDA65" points="480.5739,815.8682 476.5739,779.8682 433.5739,787.8682 	"/>
	<polygon fill="#843895" points="436.5739,822.8682 478.5739,871.8682 480.5739,815.8682 	"/>
	<polygon fill="#07ACEA" points="479.2216,1450.3054 479.9396,1456.0146 482.5739,1449.8682 	"/>
	<polygon fill="#0461C8" points="477.5739,1414.8682 474.7982,1415.1324 478.8585,1447.4176 482.5739,1449.8682 	"/>
	<polygon fill="#46BAEB" points="478.8585,1447.4176 479.2216,1450.3054 482.5739,1449.8682 	"/>
	<polygon fill="#B261BD" points="483.5739,927.8682 431.5739,927.8682 464.5739,970.8682 	"/>
	<polygon fill="#0EB3A4" points="478.5739,871.8682 433.5739,875.8682 483.5739,927.8682 	"/>
	<polygon fill="#EC752E" points="433.5739,875.8682 431.5739,927.8682 483.5739,927.8682 	"/>
	<polygon fill="#FDDA65" points="468.5739,1179.8682 445.2975,1180.5527 447.1754,1195.4861 484.5739,1238.8682 	"/>
	<polygon fill="#E4282E" points="447.1754,1195.4861 452.9373,1241.3018 484.5739,1238.8682 	"/>
	<polygon fill="#87E7E3" points="484.5739,1238.8682 452.9373,1241.3018 455.9347,1265.1357 472.5739,1274.8682 	"/>
	<polygon fill="#87E7E3" points="439.5739,248.8682 472.5739,242.8682 465.5739,188.8682 	"/>
	<polygon fill="#3C4192" points="469.5739,744.8682 463.5739,688.8682 436.5739,747.8682 	"/>
	<polygon fill="#FDCD19" points="455.9347,1265.1357 457.5032,1277.6083 472.5739,1274.8682 	"/>
	<path fill="#3C4192" d="M431.5739,278.8682l14.1119,1.176c7.1288-2.2637,13.9882-5.1299,20.5209-8.5382l-26.6328-22.6378
		L431.5739,278.8682z"/>
	<polygon fill="#0EB3A4" points="433.5739,787.8682 436.5739,822.8682 480.5739,815.8682 	"/>
	<polygon fill="#843895" points="463.6215,1326.2582 465.812,1343.6768 466.5739,1323.8682 	"/>
	<polygon fill="#FDDA65" points="464.5739,970.8682 428.5739,995.8682 472.5739,1013.8682 	"/>
	<polygon fill="#0BA251" points="464.5739,384.8682 473.5739,334.8682 437.5739,388.8682 	"/>
	<polygon fill="#0BA251" points="473.5739,334.8682 433.5739,323.8682 437.5739,388.8682 	"/>
	<polygon fill="#9E58A2" points="476.5739,779.8682 469.5739,744.8682 436.5739,747.8682 	"/>
	<polygon fill="#85DC34" points="473.0634,1401.3364 474.7982,1415.1324 477.5739,1414.8682 	"/>
	<polygon fill="#FDDA65" points="479.5739,101.8682 467.5739,68.8682 425.5739,105.8682 	"/>
	<polygon fill="#FDDA65" points="464.5739,384.8682 437.5739,388.8682 465.5739,431.8682 	"/>
	<polygon fill="#3C4192" points="418.5739,199.8682 439.5739,248.8682 465.5739,188.8682 	"/>
	<polygon fill="#3C4192" points="430.4716,1062.6617 434.286,1092.9933 468.5739,1050.8682 	"/>
	<polygon fill="#0461C8" points="433.5739,787.8682 476.5739,779.8682 436.5739,747.8682 	"/>
	<polygon fill="#843895" points="436.5739,747.8682 463.5739,688.8682 417.5739,697.8682 	"/>
	<polygon fill="#FDDA65" points="465.5739,431.8682 437.5739,388.8682 439.5739,431.8682 	"/>
	<polygon fill="#B261BD" points="465.5739,651.8682 472.5739,612.8682 433.5739,648.8682 	"/>
	<polygon fill="#85DC34" points="465.5739,431.8682 439.5739,431.8682 477.5739,457.8682 	"/>
	<polygon fill="#B261BD" points="477.5739,457.8682 439.5739,431.8682 424.5739,468.8682 	"/>
	<polygon fill="#B261BD" points="462.5739,1140.8682 443.6979,1167.8337 445.2975,1180.5527 468.5739,1179.8682 	"/>
	<polygon fill="#FCD23D" points="428.5739,995.8682 427.3414,1037.7723 430.4716,1062.6617 468.5739,1050.8682 	"/>
	<polygon fill="#EC752E" points="428.5739,995.8682 468.5739,1050.8682 472.5739,1013.8682 	"/>
	<polygon fill="#87E7E3" points="472.5739,155.8682 427.5739,144.8682 465.5739,188.8682 	"/>
	<polygon fill="#E4282E" points="439.5739,518.8682 474.5739,545.8682 464.5739,519.8682 	"/>
	<polygon fill="#0461C8" points="419.5739,559.8682 474.5739,545.8682 439.5739,518.8682 	"/>
	<polygon fill="#85DC34" points="472.5739,1108.8682 438.8629,1129.3878 439.9911,1138.3589 462.5739,1140.8682 	"/>
	<polygon fill="#843895" points="434.4379,1094.2004 438.8629,1129.3878 472.5739,1108.8682 	"/>
	<polygon fill="#D01891" points="433.5739,648.8682 472.5739,612.8682 419.5739,604.8682 	"/>
	<polygon fill="#FDCD19" points="431.5739,927.8682 421.5739,962.8682 464.5739,970.8682 	"/>
	<polygon fill="#87E7E3" points="463.5739,688.8682 465.5739,651.8682 433.5739,648.8682 	"/>
	<path fill="#9E58A2" d="M448.9741,35.0011c-7.7628-2.6981-15.8619-4.6744-24.2186-5.8524l7.8184,27.7195L448.9741,35.0011z"/>
	<polygon fill="#843895" points="462.5062,1317.3899 463.3041,1323.7346 466.5739,1323.8682 	"/>
	<polygon fill="#46BAEB" points="425.5739,105.8682 467.5739,68.8682 432.5739,56.8682 	"/>
	<polygon fill="#B261BD" points="465.5739,188.8682 427.5739,144.8682 418.5739,199.8682 	"/>
	<polygon fill="#46BAEB" points="463.3041,1323.7346 463.6215,1326.2582 466.5739,1323.8682 	"/>
	<polygon fill="#E4282E" points="439.9911,1138.3589 443.6979,1167.8337 462.5739,1140.8682 	"/>
	<polygon fill="#3C4192" points="417.5739,697.8682 463.5739,688.8682 433.5739,648.8682 	"/>
	<polygon fill="#07ACEA" points="421.5739,962.8682 428.5739,995.8682 464.5739,970.8682 	"/>
	<polygon fill="#DE4F9B" points="423.2596,1005.3157 427.3414,1037.7723 428.5739,995.8682 	"/>
	<polygon fill="#9E58A2" points="387.2784,1025.9777 391.0651,995.8682 382.5739,995.8682 	"/>
	<polygon fill="#9E58A2" points="422.0714,995.8682 423.2596,1005.3157 428.5739,995.8682 	"/>
	<polygon fill="#843895" points="432.5739,56.8682 378.5739,67.8682 425.5739,105.8682 	"/>
	<polygon fill="#3C4192" points="401.0961,916.1049 404.2833,890.7617 374.5739,905.8682 	"/>
	<polygon fill="#3C4192" points="433.5739,875.8682 408.5786,888.5776 412.5988,920.5444 431.5739,927.8682 	"/>
	<polygon fill="#D01891" points="388.5739,868.8682 374.5739,905.8682 404.2833,890.7617 406.5682,872.5923 408.5786,888.5776 
		433.5739,875.8682 	"/>
	<path fill="#FCD23D" d="M407.3901,286.0718c8.3433-0.0518,16.4982-0.8945,24.3947-2.4578l-0.2109-4.7458L407.3901,286.0718z"/>
	<polygon fill="#FCD23D" points="432.9191,309.137 410.2891,309.137 433.5739,323.8682 	"/>
	<polygon fill="#DE4F9B" points="433.5739,323.8682 410.2891,309.137 388.5178,309.137 392.5739,325.8682 	"/>
	<polygon fill="#DE4F9B" points="433.5739,323.8682 392.5739,325.8682 389.5739,383.8682 	"/>
	<polygon fill="#0BA251" points="388.5739,868.8682 433.5739,875.8682 436.5739,822.8682 	"/>
	<polygon fill="#B261BD" points="377.5739,818.8682 388.5739,868.8682 436.5739,822.8682 	"/>
	<polygon fill="#9E58A2" points="377.5739,818.8682 436.5739,822.8682 433.5739,787.8682 	"/>
	<polygon fill="#843895" points="417.5739,697.8682 374.5739,725.8682 436.5739,747.8682 	"/>
	<polygon fill="#843895" points="384.5739,771.8682 433.5739,787.8682 436.5739,747.8682 	"/>
	<polygon fill="#87E7E3" points="437.5739,388.8682 433.5739,323.8682 389.5739,383.8682 	"/>
	<polygon fill="#3C4192" points="439.5739,518.8682 378.5739,516.8682 419.5739,559.8682 	"/>
	<polygon fill="#E4282E" points="388.5739,475.8682 439.5739,518.8682 424.5739,468.8682 	"/>
	<polygon fill="#D01891" points="388.5739,475.8682 378.5739,516.8682 439.5739,518.8682 	"/>
	<polygon fill="#0EB3A4" points="439.5739,431.8682 437.5739,388.8682 390.5739,412.8682 	"/>
	<polygon fill="#D01891" points="439.5739,431.8682 390.5739,412.8682 424.5739,468.8682 	"/>
	<polygon fill="#3C4192" points="431.5739,278.8682 439.5739,248.8682 386.5739,238.8682 	"/>
	<polygon fill="#87E7E3" points="386.5739,238.8682 439.5739,248.8682 418.5739,199.8682 	"/>
	<polygon fill="#FCD23D" points="418.5739,199.8682 427.5739,144.8682 378.5739,192.8682 	"/>
	<polygon fill="#FDDA65" points="419.5739,604.8682 379.5739,648.8682 433.5739,648.8682 	"/>
	<polygon fill="#87E7E3" points="433.5739,648.8682 379.5739,648.8682 417.5739,697.8682 	"/>
	<polygon fill="#FDCD19" points="437.5739,388.8682 389.5739,383.8682 390.5739,412.8682 	"/>
	<polygon fill="#46BAEB" points="374.5739,725.8682 384.5739,771.8682 436.5739,747.8682 	"/>
	<polygon fill="#3C4192" points="378.5739,516.8682 394.5739,561.8682 419.5739,559.8682 	"/>
	<polygon fill="#0EB3A4" points="378.5739,192.8682 427.5739,144.8682 373.5739,146.8682 	"/>
	<polygon fill="#FDCD19" points="427.5739,144.8682 425.5739,105.8682 386.5739,116.8682 	"/>
	<polygon fill="#0461C8" points="424.5739,468.8682 390.5739,412.8682 388.5739,475.8682 	"/>
	<path fill="#FCD23D" d="M432.5739,56.8682l-7.8184-27.7195c-3.9182-0.5522-7.8909-0.9346-11.9138-1.1268l-34.2678,39.8463
		L432.5739,56.8682z"/>
	<polygon fill="#85DC34" points="384.5739,771.8682 377.5739,818.8682 433.5739,787.8682 	"/>
	<polygon fill="#B261BD" points="379.5739,648.8682 377.5739,688.8682 417.5739,697.8682 	"/>
	<polygon fill="#85DC34" points="419.5739,559.8682 394.5739,561.8682 419.5739,604.8682 	"/>
	<path fill="#0461C8" d="M386.5739,238.8682l-1.6812,45.3918c7.0503,1.1923,14.2916,1.8221,21.6812,1.8221
		c0.2729,0,0.5437-0.0087,0.8163-0.0104l24.1837-7.2036L386.5739,238.8682z"/>
	<polygon fill="#843895" points="398.7032,935.1316 401.0961,916.1049 374.5739,905.8682 	"/>
	<polygon fill="#843895" points="431.5739,927.8682 412.5988,920.5444 417.264,957.6414 421.5739,962.8682 	"/>
	<polygon fill="#DE4F9B" points="421.5739,962.8682 418.2727,965.6614 422.0714,995.8682 428.5739,995.8682 	"/>
	<polygon fill="#DE4F9B" points="391.0651,995.8682 392.0763,987.8277 382.5739,995.8682 	"/>
	<polygon fill="#843895" points="417.264,957.6414 417.9979,963.4768 421.5739,962.8682 	"/>
	<polygon fill="#843895" points="374.5739,970.8682 394.6385,967.4529 398.7032,935.1316 374.5739,905.8682 	"/>
	<path fill="#B261BD" d="M412.8417,28.0218c-2.0771-0.0992-4.166-0.1537-6.2678-0.1537c-6.8672,0-13.6074,0.5415-20.1846,1.5742
		l-7.8154,38.4258L412.8417,28.0218z"/>
	<polygon fill="#B261BD" points="425.5739,105.8682 378.5739,67.8682 386.5739,116.8682 	"/>
	<polygon fill="#9E58A2" points="394.5739,561.8682 377.5739,591.8682 419.5739,604.8682 	"/>
	<polygon fill="#FDCD19" points="373.5739,146.8682 427.5739,144.8682 386.5739,116.8682 	"/>
	<polygon fill="#0EB3A4" points="417.9979,963.4768 418.2727,965.6614 421.5739,962.8682 	"/>
	<polygon fill="#0EB3A4" points="382.5739,995.8682 392.0763,987.8277 394.6385,967.4529 374.5739,970.8682 	"/>
	<polygon fill="#9E58A2" points="378.5739,192.8682 386.5739,238.8682 418.5739,199.8682 	"/>
	<polygon fill="#3C4192" points="377.5739,591.8682 379.5739,648.8682 419.5739,604.8682 	"/>
	<polygon fill="#85DC34" points="377.5739,688.8682 374.5739,725.8682 417.5739,697.8682 	"/>
	<polygon fill="#DE4F9B" points="377.5739,591.8682 338.5739,613.8682 379.5739,648.8682 	"/>
	<polygon fill="#9E58A2" points="338.5739,613.8682 342.5739,637.8682 379.5739,648.8682 	"/>
	<polygon fill="#843895" points="347.5739,783.8682 377.5739,818.8682 384.5739,771.8682 	"/>
	<polygon fill="#85DC34" points="368.8512,1172.5039 373.7966,1133.1803 344.5739,1141.8682 	"/>
	<path fill="#DE4F9B" d="M351.6168,273.8252c10.4065,4.9031,21.573,8.4556,33.2759,10.4348l1.6812-45.3918L351.6168,273.8252z"/>
	<polygon fill="#9E58A2" points="348.5739,866.8682 388.5739,868.8682 377.5739,818.8682 	"/>
	<polygon fill="#843895" points="388.5739,475.8682 334.5739,429.8682 334.5739,474.8682 	"/>
	<polygon fill="#85DC34" points="390.5739,412.8682 334.5739,429.8682 388.5739,475.8682 	"/>
	<path fill="#0461C8" d="M386.3893,29.4424c-11.9474,1.876-23.3484,5.3927-33.9711,10.3085l26.1556,28.1173L386.3893,29.4424z"/>
	<polygon fill="#0461C8" points="345.5739,1040.8682 383.4788,1056.1914 387.2784,1025.9777 382.5739,995.8682 	"/>
	<polygon fill="#0461C8" points="389.5739,383.8682 392.5739,325.8682 347.5739,367.8682 	"/>
	<polygon fill="#0EB3A4" points="392.5739,325.8682 339.5739,337.8682 347.5739,367.8682 	"/>
	<polygon fill="#B261BD" points="378.5739,516.8682 341.5739,556.8682 394.5739,561.8682 	"/>
	<polygon fill="#0461C8" points="344.0629,1369.6124 344.8127,1363.6492 338.5739,1363.8682 	"/>
	<polygon fill="#07ACEA" points="344.8127,1363.6492 346.0077,1354.1469 338.5739,1363.8682 	"/>
	<polygon fill="#FCD23D" points="341.5739,206.8682 386.5739,238.8682 378.5739,192.8682 	"/>
	<polygon fill="#9E58A2" points="374.7223,1125.8196 378.8918,1092.6652 343.5739,1102.8682 	"/>
	<polygon fill="#46BAEB" points="394.5739,561.8682 341.5739,556.8682 377.5739,591.8682 	"/>
	<polygon fill="#3C4192" points="374.5739,970.8682 374.5739,905.8682 327.5739,959.8682 	"/>
	<polygon fill="#85DC34" points="338.5739,1363.8682 346.0077,1354.1469 350.2623,1320.3168 333.5739,1324.8682 	"/>
	<polygon fill="#87E7E3" points="348.5739,866.8682 377.5739,818.8682 343.5739,825.8682 	"/>
	<polygon fill="#46BAEB" points="374.5739,725.8682 341.5739,737.8682 384.5739,771.8682 	"/>
	<path fill="#FDCD19" d="M336.5739,240.8682l3.0863,26.5422c3.8564,2.3416,7.8492,4.4797,11.9567,6.4148l34.957-34.957
		L336.5739,240.8682z"/>
	<polygon fill="#3C4192" points="378.5739,67.8682 328.5739,101.8682 386.5739,116.8682 	"/>
	<polygon fill="#FDDA65" points="343.5739,1102.8682 378.8918,1092.6652 380.4131,1080.5686 345.5739,1040.8682 	"/>
	<polygon fill="#85DC34" points="389.5739,383.8682 347.5739,367.8682 390.5739,412.8682 	"/>
	<polygon fill="#FCD23D" points="380.4131,1080.5686 383.4788,1056.1914 345.5739,1040.8682 	"/>
	<polygon fill="#B261BD" points="392.5739,325.8682 388.5178,309.137 368.3051,309.137 339.5739,337.8682 	"/>
	<polygon fill="#0EB3A4" points="329.5739,1198.8682 365.8558,1196.322 368.8512,1172.5039 344.5739,1141.8682 	"/>
	<polygon fill="#87E7E3" points="374.5739,905.8682 388.5739,868.8682 348.5739,866.8682 	"/>
	<polygon fill="#07ACEA" points="334.5739,474.8682 378.5739,516.8682 388.5739,475.8682 	"/>
	<polygon fill="#B261BD" points="390.5739,412.8682 347.5739,367.8682 334.5739,429.8682 	"/>
	<polygon fill="#0BA251" points="332.5739,508.8682 378.5739,516.8682 334.5739,474.8682 	"/>
	<polygon fill="#B261BD" points="336.5739,69.8682 328.5739,101.8682 378.5739,67.8682 	"/>
	<polygon fill="#3C4192" points="368.3051,309.137 340.6381,309.137 339.5739,337.8682 	"/>
	<polygon fill="#9E58A2" points="327.5739,959.8682 374.5739,905.8682 327.5739,909.8682 	"/>
	<polygon fill="#EC752E" points="329.5739,1402.8682 339.7332,1404.0404 344.0629,1369.6124 338.5739,1363.8682 	"/>
	<polygon fill="#E4282E" points="362.6993,1221.4216 365.8558,1196.322 329.5739,1198.8682 	"/>
	<polygon fill="#0461C8" points="336.5739,240.8682 386.5739,238.8682 341.5739,206.8682 	"/>
	<polygon fill="#E4282E" points="373.5739,146.8682 332.5739,162.8682 378.5739,192.8682 	"/>
	<polygon fill="#46BAEB" points="379.5739,648.8682 348.5739,691.8682 377.5739,688.8682 	"/>
	<polygon fill="#0BA251" points="345.5739,1040.8682 382.5739,995.8682 332.5739,996.8682 	"/>
	<polygon fill="#FDCD19" points="341.5739,737.8682 347.5739,783.8682 384.5739,771.8682 	"/>
	<polygon fill="#DE4F9B" points="386.5739,116.8682 328.5739,101.8682 373.5739,146.8682 	"/>
	<polygon fill="#843895" points="352.9342,1299.0699 356.1582,1273.4344 327.5739,1284.8682 	"/>
	<polygon fill="#FDDA65" points="377.5739,688.8682 348.5739,691.8682 374.5739,725.8682 	"/>
	<path fill="#9E58A2" d="M378.5739,67.8682l-26.1556-28.1173c-5.1475,2.382-10.1123,5.0907-14.866,8.1039l-0.9784,22.0134
		L378.5739,67.8682z"/>
	<polygon fill="#0461C8" points="334.9524,1442.0548 339.7332,1404.0404 329.5739,1402.8682 	"/>
	<polygon fill="#FDCD19" points="342.5739,637.8682 348.5739,691.8682 379.5739,648.8682 	"/>
	<polygon fill="#843895" points="344.5739,1141.8682 373.7966,1133.1803 374.7223,1125.8196 343.5739,1102.8682 	"/>
	<polygon fill="#DE4F9B" points="382.5739,995.8682 374.5739,970.8682 332.5739,996.8682 	"/>
	<polygon fill="#85DC34" points="358.2574,1256.7419 361.2108,1233.2579 331.5739,1237.8682 	"/>
	<polygon fill="#B261BD" points="332.5739,508.8682 341.5739,556.8682 378.5739,516.8682 	"/>
	<polygon fill="#FDCD19" points="343.5739,825.8682 377.5739,818.8682 347.5739,783.8682 	"/>
	<polygon fill="#9E58A2" points="332.5739,162.8682 341.5739,206.8682 378.5739,192.8682 	"/>
	<polygon fill="#87E7E3" points="331.5739,1237.8682 361.2108,1233.2579 362.6993,1221.4216 329.5739,1198.8682 	"/>
	<polygon fill="#85DC34" points="333.5739,1324.8682 350.2623,1320.3168 352.9342,1299.0699 327.5739,1284.8682 	"/>
	<polygon fill="#FDDA65" points="341.5739,556.8682 338.5739,613.8682 377.5739,591.8682 	"/>
	<polygon fill="#87E7E3" points="328.5739,101.8682 332.5739,162.8682 373.5739,146.8682 	"/>
	<polygon fill="#843895" points="327.5739,909.8682 374.5739,905.8682 348.5739,866.8682 	"/>
	<polygon fill="#0461C8" points="348.5739,691.8682 341.5739,737.8682 374.5739,725.8682 	"/>
	<polygon fill="#FDCD19" points="332.5739,996.8682 374.5739,970.8682 327.5739,959.8682 	"/>
	<polygon fill="#FDCD19" points="327.5739,1284.8682 356.1582,1273.4344 358.2574,1256.7419 331.5739,1237.8682 	"/>
	<polygon fill="#3C4192" points="293.5739,152.8682 332.5739,162.8682 328.5739,101.8682 	"/>
	<polygon fill="#0EB3A4" points="334.5739,429.8682 300.5739,381.8682 297.5739,417.8682 	"/>
	<polygon fill="#46BAEB" points="300.5739,1418.8682 333.8053,1451.1765 334.9524,1442.0548 329.5739,1402.8682 	"/>
	<polygon fill="#87E7E3" points="327.292,1502.9675 333.1332,1456.5203 288.5739,1490.8682 	"/>
	<path fill="#E4282E" d="M337.5522,47.8547c-8.3298,5.2798-16.0118,11.4874-22.9044,18.4771l21.926,3.5364L337.5522,47.8547z"/>
	<path fill="#FDDA65" d="M339.5739,337.8682l-22.8785-28.7312h-19.0748c-1.1211,0-2.2358,0.0339-3.3501,0.0691l-2.6965,29.6621
		L339.5739,337.8682z"/>
	<polygon fill="#FDDA65" points="286.5739,745.8682 296.5739,788.8682 341.5739,737.8682 	"/>
	<polygon fill="#E4282E" points="303.5739,510.8682 341.5739,556.8682 332.5739,508.8682 	"/>
	<polygon fill="#0BA251" points="341.5739,556.8682 299.5739,591.8682 338.5739,613.8682 	"/>
	<polygon fill="#FDCD19" points="340.6381,309.137 316.6953,309.137 339.5739,337.8682 	"/>
	<path fill="#3C4192" d="M323.0446,255.4121c5.2019,4.4186,10.7529,8.4385,16.6156,11.9983l-3.0863-26.5422L323.0446,255.4121z"/>
	<polygon fill="#FDCD19" points="291.5739,1086.8682 343.5739,1102.8682 294.5739,1050.8682 	"/>
	<polygon fill="#EC752E" points="296.5739,788.8682 304.5739,827.8682 343.5739,825.8682 	"/>
	<polygon fill="#46BAEB" points="344.5739,1141.8682 343.5739,1102.8682 299.5739,1153.8682 	"/>
	<polygon fill="#FDCD19" points="329.5739,1198.8682 344.5739,1141.8682 299.5739,1153.8682 	"/>
	<polygon fill="#87E7E3" points="343.5739,1102.8682 345.5739,1040.8682 294.5739,1050.8682 	"/>
	<polygon fill="#DE4F9B" points="294.5739,1050.8682 345.5739,1040.8682 332.5739,996.8682 	"/>
	<polygon fill="#0461C8" points="347.5739,783.8682 296.5739,788.8682 343.5739,825.8682 	"/>
	<polygon fill="#85DC34" points="341.5739,737.8682 296.5739,788.8682 347.5739,783.8682 	"/>
	<polygon fill="#46BAEB" points="347.5739,367.8682 339.5739,337.8682 300.5739,381.8682 	"/>
	<polygon fill="#07ACEA" points="347.5739,367.8682 300.5739,381.8682 334.5739,429.8682 	"/>
	<polygon fill="#87E7E3" points="327.5739,909.8682 348.5739,866.8682 299.5739,883.8682 	"/>
	<polygon fill="#0EB3A4" points="343.5739,825.8682 304.5739,827.8682 348.5739,866.8682 	"/>
	<polygon fill="#0BA251" points="348.5739,866.8682 304.5739,827.8682 299.5739,883.8682 	"/>
	<polygon fill="#0BA251" points="348.5739,691.8682 288.5739,689.8682 341.5739,737.8682 	"/>
	<polygon fill="#87E7E3" points="342.5739,637.8682 298.5739,656.8682 348.5739,691.8682 	"/>
	<polygon fill="#B261BD" points="298.5739,656.8682 288.5739,689.8682 348.5739,691.8682 	"/>
	<polygon fill="#DE4F9B" points="288.5739,689.8682 286.5739,745.8682 341.5739,737.8682 	"/>
	<polygon fill="#D01891" points="299.5739,1153.8682 343.5739,1102.8682 291.5739,1086.8682 	"/>
	<polygon fill="#87E7E3" points="294.5739,105.8682 293.5739,152.8682 328.5739,101.8682 	"/>
	<polygon fill="#DE4F9B" points="334.5739,429.8682 302.5739,474.8682 334.5739,474.8682 	"/>
	<path fill="#D01891" d="M294.7721,1620.8593c10.2463-6.3273,17.9248-16.4971,20.9504-28.6593l-26.1487,2.6682L294.7721,1620.8593z"
		/>
	<polygon fill="#3C4192" points="339.5739,337.8682 291.5739,338.8682 300.5739,381.8682 	"/>
	<path fill="#B261BD" d="M332.5739,162.8682l-47.2462,38.5684c0.196,0.5344,0.4032,1.0634,0.6061,1.5945l55.6401,3.8372
		L332.5739,162.8682z"/>
	<polygon fill="#FDCD19" points="332.5739,996.8682 287.5739,999.8682 294.5739,1050.8682 	"/>
	<polygon fill="#B261BD" points="338.5739,1363.8682 333.5739,1324.8682 299.5739,1364.8682 	"/>
	<polygon fill="#87E7E3" points="303.5739,510.8682 282.5739,556.8682 341.5739,556.8682 	"/>
	<polygon fill="#0BA251" points="288.5739,1490.8682 333.1332,1456.5203 333.4849,1453.7245 293.5739,1451.8682 	"/>
	<polygon fill="#DE4F9B" points="329.5739,1402.8682 338.5739,1363.8682 299.5739,1364.8682 	"/>
	<path fill="#B261BD" d="M341.5739,206.8682l-55.6401-3.8372c0.2717,0.7114,0.5481,1.4204,0.8322,2.1257l49.808,35.7114
		L341.5739,206.8682z"/>
	<polygon fill="#3C4192" points="320.8907,1553.8682 325.7131,1515.5221 282.5739,1553.8682 	"/>
	<polygon fill="#D01891" points="338.5739,613.8682 298.5739,656.8682 342.5739,637.8682 	"/>
	<polygon fill="#07ACEA" points="327.5739,1284.8682 331.5739,1237.8682 300.5739,1284.8682 	"/>
	<path fill="#843895" d="M286.7659,205.1567c5.1882,12.8889,12.3959,24.7451,21.2311,35.1823l28.5769,0.5292L286.7659,205.1567z"/>
	<path fill="#9E58A2" d="M315.7225,1592.2c0.4482-1.802,0.8057-3.6428,1.0425-5.5262l2.6306-20.9174l-29.8218,29.1118
		L315.7225,1592.2z"/>
	<polygon fill="#0EB3A4" points="282.5739,556.8682 299.5739,591.8682 341.5739,556.8682 	"/>
	<polygon fill="#9E58A2" points="288.5739,1312.8682 327.5739,1284.8682 300.5739,1284.8682 	"/>
	<polygon fill="#843895" points="292.5739,1193.8682 329.5739,1198.8682 299.5739,1153.8682 	"/>
	<polygon fill="#46BAEB" points="327.5739,959.8682 303.5739,966.8682 332.5739,996.8682 	"/>
	<polygon fill="#87E7E3" points="333.5739,1324.8682 327.5739,1284.8682 288.5739,1312.8682 	"/>
	<polygon fill="#07ACEA" points="302.5739,474.8682 332.5739,508.8682 334.5739,474.8682 	"/>
	<polygon fill="#07ACEA" points="282.5739,1553.8682 325.7131,1515.5221 327.292,1502.9675 288.5739,1490.8682 	"/>
	<polygon fill="#D01891" points="293.5739,1451.8682 333.4849,1453.7245 333.8053,1451.1765 300.5739,1418.8682 	"/>
	<path fill="#B261BD" d="M307.9969,240.339c4.5945,5.4274,9.6279,10.4698,15.0476,15.0731l13.5293-14.5439L307.9969,240.339z"/>
	<path fill="#87E7E3" d="M336.5739,69.8682l-21.926-3.5364c-1.6812,1.7048-3.3142,3.4565-4.8992,5.2523l18.8252,30.2841
		L336.5739,69.8682z"/>
	<polygon fill="#FCD23D" points="299.5739,591.8682 298.5739,656.8682 338.5739,613.8682 	"/>
	<polygon fill="#87E7E3" points="327.5739,909.8682 303.5739,966.8682 327.5739,959.8682 	"/>
	<polygon fill="#0BA251" points="282.5739,912.8682 303.5739,966.8682 327.5739,909.8682 	"/>
	<polygon fill="#9E58A2" points="331.5739,1237.8682 329.5739,1198.8682 286.5739,1222.8682 	"/>
	<polygon fill="#0EB3A4" points="302.5739,474.8682 303.5739,510.8682 332.5739,508.8682 	"/>
	<path fill="#D01891" d="M293.5739,152.8682l-9.1829,45.9144c0.304,0.8885,0.614,1.7742,0.9366,2.6539l47.2462-38.5684
		L293.5739,152.8682z"/>
	<polygon fill="#843895" points="297.5739,417.8682 302.5739,474.8682 334.5739,429.8682 	"/>
	<polygon fill="#D01891" points="289.5739,1594.8682 319.3956,1565.7563 320.8907,1553.8682 282.5739,1553.8682 	"/>
	<polygon fill="#B261BD" points="300.5739,1284.8682 331.5739,1237.8682 286.5739,1222.8682 	"/>
	<polygon fill="#9E58A2" points="299.5739,1364.8682 333.5739,1324.8682 288.5739,1312.8682 	"/>
	<polygon fill="#3C4192" points="286.5739,1222.8682 329.5739,1198.8682 292.5739,1193.8682 	"/>
	<path fill="#D01891" d="M328.5739,101.8682l-18.8252-30.2841c-3.2341,3.6642-6.2632,7.5128-9.0698,11.5292l-6.105,22.7549
		L328.5739,101.8682z"/>
	<polygon fill="#87E7E3" points="303.5739,966.8682 287.5739,999.8682 332.5739,996.8682 	"/>
	<polygon fill="#0461C8" points="300.5739,1418.8682 329.5739,1402.8682 299.5739,1364.8682 	"/>
	<polygon fill="#9E58A2" points="299.5739,883.8682 282.5739,912.8682 327.5739,909.8682 	"/>
	<polygon fill="#07ACEA" points="282.5739,1553.8682 288.5739,1490.8682 247.5738,1496.8682 	"/>
	<polygon fill="#B261BD" points="288.5739,689.8682 262.059,693.1826 262.381,703.9338 286.5739,745.8682 	"/>
	<path fill="#DE4F9B" d="M277.4879,155.3054c-0.0071,0.5566-0.021,1.1116-0.021,1.6697c0,14.6327,2.4384,28.6948,6.9241,41.8075
		l9.1829-45.9144L277.4879,155.3054z"/>
	<polygon fill="#07ACEA" points="287.5739,999.8682 252.5738,1043.8682 294.5739,1050.8682 	"/>
	<path fill="#DE4F9B" d="M290.3538,100.689c-0.9364,1.9299-1.8278,3.886-2.6693,5.8682l6.8894-0.689L290.3538,100.689z"/>
	<path fill="#85DC34" d="M294.5739,105.8682l-6.8894,0.689c-4.0583,9.5579-6.9946,19.7062-8.6509,30.2793l14.5403,16.0317
		L294.5739,105.8682z"/>
	<path fill="#DE4F9B" d="M291.5739,338.8682l2.6965-29.6621c-10.7239,0.3389-21.1193,2.2906-30.9121,5.6633l-11.7844,10.9988
		L291.5739,338.8682z"/>
	<polygon fill="#E4282E" points="258.5739,416.8682 251.5738,469.8682 297.5739,417.8682 	"/>
	<polygon fill="#0461C8" points="299.5739,1364.8682 288.5739,1312.8682 255.5738,1319.8682 	"/>
	<polygon fill="#0461C8" points="291.5739,1086.8682 252.5738,1097.8682 299.5739,1153.8682 	"/>
	<polygon fill="#9E58A2" points="252.5738,1097.8682 245.5738,1140.8682 299.5739,1153.8682 	"/>
	<polygon fill="#DE4F9B" points="299.5739,1153.8682 254.5738,1175.8682 292.5739,1193.8682 	"/>
	<polygon fill="#0EB3A4" points="299.5739,591.8682 260.1273,628.6849 260.799,651.1059 298.5739,656.8682 	"/>
	<polygon fill="#FDCD19" points="259.2391,599.0243 260.1273,628.6849 299.5739,591.8682 	"/>
	<polygon fill="#FDCD19" points="238.4758,623.1626 245.3058,601.4963 237.5738,602.8682 	"/>
	<polygon fill="#0BA251" points="246.5738,1378.8682 300.5739,1418.8682 299.5739,1364.8682 	"/>
	<polygon fill="#E4282E" points="246.5738,1417.8682 300.5739,1418.8682 246.5738,1378.8682 	"/>
	<polygon fill="#FDCD19" points="300.5739,1284.8682 286.5739,1222.8682 246.5738,1274.8682 	"/>
	<polygon fill="#DE4F9B" points="300.5739,381.8682 291.5739,338.8682 254.5738,369.8682 	"/>
	<polygon fill="#07ACEA" points="300.5739,381.8682 258.5739,416.8682 297.5739,417.8682 	"/>
	<polygon fill="#FDDA65" points="297.5739,417.8682 251.5738,469.8682 302.5739,474.8682 	"/>
	<polygon fill="#FDCD19" points="251.5738,469.8682 257.5739,513.8682 302.5739,474.8682 	"/>
	<polygon fill="#0EB3A4" points="282.5739,912.8682 240.7015,955.7143 240.5278,957.0172 303.5739,966.8682 	"/>
	<polygon fill="#0461C8" points="257.5739,513.8682 303.5739,510.8682 302.5739,474.8682 	"/>
	<polygon fill="#0461C8" points="257.5739,513.8682 282.5739,556.8682 303.5739,510.8682 	"/>
	<polygon fill="#0EB3A4" points="296.5739,788.8682 258.6158,821.2907 257.5153,829.5488 304.5739,827.8682 	"/>
	<polygon fill="#FDCD19" points="304.5739,827.8682 259.5739,868.8682 299.5739,883.8682 	"/>
	<polygon fill="#0BA251" points="304.5739,827.8682 257.5153,829.5488 254.6173,851.2947 259.5739,868.8682 	"/>
	<path fill="#DE4F9B" d="M300.6788,83.1133c-3.8823,5.5557-7.3422,11.428-10.3251,17.5757l4.2201,5.1792L300.6788,83.1133z"/>
	<polygon fill="#FCD23D" points="263.3304,785.9132 258.6158,821.2907 296.5739,788.8682 	"/>
	<path fill="#D01891" d="M258.5739,1602.8682l27.1829,22.304c3.1699-1.1215,6.1906-2.5685,9.0154-4.3129l-5.1982-25.9911
		L258.5739,1602.8682z"/>
	<polygon fill="#FDDA65" points="303.5739,966.8682 240.5278,957.0172 240.4438,957.6475 287.5739,999.8682 	"/>
	<polygon fill="#46BAEB" points="286.5739,745.8682 264.3774,770.6013 264.5597,776.6888 263.3304,785.9132 296.5739,788.8682 	"/>
	<path fill="#87E7E3" d="M263.3583,314.8694c-3.9001,1.3433-7.7063,2.9063-11.3978,4.6848l-0.3866,6.314L263.3583,314.8694z"/>
	<polygon fill="#D01891" points="293.5739,1451.8682 300.5739,1418.8682 246.5738,1417.8682 	"/>
	<polygon fill="#46BAEB" points="263.7052,748.155 264.3774,770.6013 286.5739,745.8682 	"/>
	<path fill="#46BAEB" d="M279.0336,136.8364c-0.9443,6.028-1.4659,12.1949-1.5457,18.469l16.0859-2.4373L279.0336,136.8364z"/>
	<polygon fill="#E4282E" points="246.5738,1378.8682 299.5739,1364.8682 255.5738,1319.8682 	"/>
	<polygon fill="#9E58A2" points="288.5739,1312.8682 300.5739,1284.8682 246.5738,1274.8682 	"/>
	<polygon fill="#9E58A2" points="254.5738,369.8682 258.5739,416.8682 300.5739,381.8682 	"/>
	<polygon fill="#3C4192" points="288.5739,1490.8682 293.5739,1451.8682 248.5738,1461.8682 	"/>
	<polygon fill="#EC752E" points="298.5739,656.8682 261.938,689.1426 262.059,693.1826 288.5739,689.8682 	"/>
	<polygon fill="#07ACEA" points="245.5738,1140.8682 254.5738,1175.8682 299.5739,1153.8682 	"/>
	<polygon fill="#FDCD19" points="259.5739,868.8682 282.5739,912.8682 299.5739,883.8682 	"/>
	<polygon fill="#0BA251" points="245.3058,601.4963 248.3437,591.8589 237.5738,602.8682 	"/>
	<path fill="#0BA251" d="M282.5739,556.8682l-28.2031,28.8298c2.3258,0.1967,4.5278,1.8909,4.6143,4.8414l0.2542,8.4849
		l40.3347-7.1561L282.5739,556.8682z"/>
	<polygon fill="#0461C8" points="262.381,703.9338 263.7052,748.155 286.5739,745.8682 	"/>
	<polygon fill="#46BAEB" points="294.5739,1050.8682 252.5738,1043.8682 291.5739,1086.8682 	"/>
	<polygon fill="#46BAEB" points="260.799,651.1059 261.938,689.1426 298.5739,656.8682 	"/>
	<path fill="#3C4192" d="M247.5738,556.8682l-10,46l10.7699-11.0093l0.8477-2.689c0.8075-2.5746,3.0455-3.6523,5.1793-3.4719
		l28.2031-28.8298H247.5738z"/>
	<path fill="#0461C8" d="M254.6849,1627.8682h15.3804c5.4852,0,10.7676-0.9541,15.6914-2.696l-27.1829-22.304L254.6849,1627.8682z"
		/>
	<polygon fill="#3C4192" points="286.5739,1222.8682 237.5738,1227.8682 246.5738,1274.8682 	"/>
	<polygon fill="#B261BD" points="241.5738,1013.8682 252.5738,1043.8682 287.5739,999.8682 	"/>
	<polygon fill="#FDCD19" points="255.5738,1319.8682 288.5739,1312.8682 246.5738,1274.8682 	"/>
	<polygon fill="#FDCD19" points="289.5739,1594.8682 282.5739,1553.8682 258.5739,1602.8682 	"/>
	<polygon fill="#FDCD19" points="252.5738,1043.8682 252.5738,1097.8682 291.5739,1086.8682 	"/>
	<polygon fill="#B261BD" points="248.5738,1461.8682 293.5739,1451.8682 246.5738,1417.8682 	"/>
	<polygon fill="#0BA251" points="292.5739,1193.8682 254.5738,1175.8682 286.5739,1222.8682 	"/>
	<polygon fill="#9E58A2" points="238.5738,1557.8682 282.5739,1553.8682 247.5738,1496.8682 	"/>
	<polygon fill="#0EB3A4" points="291.5739,338.8682 251.5738,325.8682 254.5738,369.8682 	"/>
	<polygon fill="#FCD23D" points="258.5739,1602.8682 282.5739,1553.8682 238.5738,1557.8682 	"/>
	<polygon fill="#0461C8" points="259.5739,868.8682 248.8954,894.2295 247.138,907.4165 282.5739,912.8682 	"/>
	<polygon fill="#FDDA65" points="247.138,907.4165 240.7015,955.7143 282.5739,912.8682 	"/>
	<polygon fill="#0BA251" points="247.5738,556.8682 282.5739,556.8682 257.5739,513.8682 	"/>
	<polygon fill="#0EB3A4" points="254.5738,1175.8682 237.5738,1227.8682 286.5739,1222.8682 	"/>
	<polygon fill="#D01891" points="287.5739,999.8682 240.4438,957.6475 239.7767,962.6527 241.5738,1013.8682 	"/>
	<polygon fill="#D01891" points="247.5738,1496.8682 288.5739,1490.8682 248.5738,1461.8682 	"/>
	<polygon fill="#B261BD" points="201.5738,1499.8682 210.5738,1556.8682 238.5738,1557.8682 	"/>
	<polygon fill="#3C4192" points="206.5738,1276.8682 212.5738,1330.8682 246.5738,1274.8682 	"/>
	<polygon fill="#B261BD" points="247.5738,1496.8682 201.5738,1499.8682 238.5738,1557.8682 	"/>
	<path fill="#B261BD" d="M197.1908,1627.2427c2.4995,0.4092,5.0684,0.6255,7.6938,0.6255h30.3929l-27.7037-34L197.1908,1627.2427z"
		/>
	<polygon fill="#FDCD19" points="203.5738,429.8682 202.5738,462.8682 251.5738,469.8682 	"/>
	<polygon fill="#0461C8" points="252.5738,1043.8682 227.7505,1052.8948 224.1025,1080.2677 252.5738,1097.8682 	"/>
	<polygon fill="#0461C8" points="254.5738,1175.8682 210.7473,1180.4814 208.8364,1194.8201 237.5738,1227.8682 	"/>
	<polygon fill="#0EB3A4" points="251.5738,325.8682 208.5738,371.8682 254.5738,369.8682 	"/>
	<path fill="#FDDA65" d="M251.9604,319.5542c-1.9969,0.9622-3.9532,1.9982-5.8813,3.0818l5.4948,3.2322L251.9604,319.5542z"/>
	<polygon fill="#3C4192" points="246.5738,1274.8682 212.5738,1330.8682 255.5738,1319.8682 	"/>
	<polygon fill="#0461C8" points="255.5738,1319.8682 212.5738,1330.8682 246.5738,1378.8682 	"/>
	<polygon fill="#FDDA65" points="216.9225,691.5357 224.7965,666.5573 205.5738,690.8682 	"/>
	<polygon fill="#D01891" points="201.4148,740.7299 203.5926,733.8212 195.5738,739.8682 	"/>
	<polygon fill="#87E7E3" points="195.5738,739.8682 203.5926,733.8212 216.9225,691.5357 205.5738,690.8682 	"/>
	<polygon fill="#0BA251" points="251.5738,469.8682 207.5738,503.8682 257.5739,513.8682 	"/>
	<polygon fill="#87E7E3" points="207.5738,503.8682 247.5738,556.8682 257.5739,513.8682 	"/>
	<polygon fill="#FDCD19" points="207.5738,1593.8682 235.2776,1627.8682 254.6849,1627.8682 258.5739,1602.8682 	"/>
	<polygon fill="#FCD23D" points="207.5738,1593.8682 258.5739,1602.8682 238.5738,1557.8682 	"/>
	<polygon fill="#0BA251" points="258.5739,416.8682 203.5738,429.8682 251.5738,469.8682 	"/>
	<polygon fill="#85DC34" points="254.5738,369.8682 208.5738,371.8682 258.5739,416.8682 	"/>
	<polygon fill="#9E58A2" points="208.5738,371.8682 203.5738,429.8682 258.5739,416.8682 	"/>
	<polygon fill="#843895" points="252.2578,868.9988 248.8954,894.2295 259.5739,868.8682 	"/>
	<polygon fill="#DE4F9B" points="254.6173,851.2947 252.8707,864.3995 259.5739,868.8682 	"/>
	<polygon fill="#0461C8" points="252.8707,864.3995 252.2578,868.9988 259.5739,868.8682 	"/>
	<polygon fill="#07ACEA" points="212.5738,1330.8682 201.5738,1356.8682 246.5738,1378.8682 	"/>
	<polygon fill="#FCD23D" points="252.5738,1097.8682 220.7649,1105.3127 218.8732,1119.5076 245.5738,1140.8682 	"/>
	<polygon fill="#07ACEA" points="208.5738,560.8682 247.5738,556.8682 207.5738,503.8682 	"/>
	<polygon fill="#46BAEB" points="245.5738,1140.8682 214.4722,1152.5313 214.3679,1153.3136 254.5738,1175.8682 	"/>
	<polygon fill="#FDDA65" points="237.5738,1227.8682 209.5738,1241.8682 246.5738,1274.8682 	"/>
	<polygon fill="#0BA251" points="239.7767,962.6527 232.8309,1014.7726 241.5738,1013.8682 	"/>
	<polygon fill="#0BA251" points="237.5738,602.8682 247.5738,556.8682 208.5738,560.8682 	"/>
	<polygon fill="#B261BD" points="246.5738,1417.8682 198.5738,1447.8682 248.5738,1461.8682 	"/>
	<path fill="#46BAEB" d="M251.5738,325.8682l-11.5247,0.4268c-13.8534,9.0554-25.5289,21.3344-33.8735,35.9801l2.3982,9.5931
		L251.5738,325.8682z"/>
	<polygon fill="#D01891" points="196.975,754.814 201.4148,740.7299 195.5738,739.8682 	"/>
	<polygon fill="#0BA251" points="224.1025,1080.2677 220.7649,1105.3127 252.5738,1097.8682 	"/>
	<polygon fill="#07ACEA" points="214.3679,1153.3136 210.7473,1180.4814 254.5738,1175.8682 	"/>
	<polygon fill="#B261BD" points="246.5738,1378.8682 199.5738,1411.8682 246.5738,1417.8682 	"/>
	<polygon fill="#85DC34" points="248.5738,1461.8682 201.5738,1499.8682 247.5738,1496.8682 	"/>
	<polygon fill="#87E7E3" points="202.5738,462.8682 207.5738,503.8682 251.5738,469.8682 	"/>
	<path fill="#D01891" d="M246.0791,322.636c-2.0519,1.1533-4.0625,2.373-6.0299,3.6589l11.5247-0.4268L246.0791,322.636z"/>
	<polygon fill="#87E7E3" points="241.5738,1013.8682 232.8309,1014.7726 230.9029,1029.2402 252.5738,1043.8682 	"/>
	<polygon fill="#46BAEB" points="230.9029,1029.2402 227.7505,1052.8948 252.5738,1043.8682 	"/>
	<polygon fill="#EC752E" points="208.5738,605.8682 233.3472,639.432 238.4758,623.1626 237.5738,602.8682 	"/>
	<polygon fill="#9E58A2" points="209.5738,1241.8682 206.5738,1276.8682 246.5738,1274.8682 	"/>
	<polygon fill="#0EB3A4" points="218.8732,1119.5076 214.4722,1152.5313 245.5738,1140.8682 	"/>
	<polygon fill="#0EB3A4" points="199.5738,1411.8682 198.5738,1447.8682 246.5738,1417.8682 	"/>
	<polygon fill="#0461C8" points="198.5738,1447.8682 201.5738,1499.8682 248.5738,1461.8682 	"/>
	<polygon fill="#85DC34" points="210.5738,1556.8682 207.5738,1593.8682 238.5738,1557.8682 	"/>
	<polygon fill="#0BA251" points="205.5738,690.8682 224.7965,666.5573 230.1476,649.582 195.5738,655.8682 	"/>
	<polygon fill="#0461C8" points="201.5738,1356.8682 199.5738,1411.8682 246.5738,1378.8682 	"/>
	<polygon fill="#843895" points="208.5738,605.8682 237.5738,602.8682 208.5738,560.8682 	"/>
	<polygon fill="#FCD23D" points="237.5738,1227.8682 208.8364,1194.8201 205.3685,1220.8419 209.5738,1241.8682 	"/>
	<polygon fill="#D01891" points="195.5738,655.8682 230.1476,649.582 233.3472,639.432 208.5738,605.8682 	"/>
	<polygon fill="#FDDA65" points="159.5738,815.8682 187.7494,784.0804 190.7801,774.4661 162.5738,783.8682 	"/>
	<polygon fill="#87E7E3" points="189.3922,409.7776 185.8998,421.8728 203.5738,429.8682 	"/>
	<polygon fill="#EC752E" points="175.7513,822.1411 187.7494,784.0804 159.5738,815.8682 	"/>
	<polygon fill="#FDCD19" points="195.5738,655.8682 208.5738,605.8682 169.5738,644.8682 	"/>
	<polygon fill="#B261BD" points="207.5738,503.8682 160.6604,509.2813 159.4217,513.5708 208.5738,560.8682 	"/>
	<polygon fill="#DE4F9B" points="208.5738,560.8682 159.4217,513.5708 154.0538,532.1609 152.5738,553.8682 	"/>
	<polygon fill="#3C4192" points="150.5738,608.8682 208.5738,605.8682 208.5738,560.8682 	"/>
	<path fill="#9E58A2" d="M208.5738,371.8682l-7.8186,1.335c-1.6456,3.875-3.0773,7.8777-4.2673,12.001l-7.0957,24.5735
		l14.1816,20.0906L208.5738,371.8682z"/>
	<polygon fill="#DE4F9B" points="205.3685,1220.8419 203.3329,1236.1167 209.5738,1241.8682 	"/>
	<polygon fill="#843895" points="203.3329,1236.1167 202.635,1241.3541 209.5738,1241.8682 	"/>
	<polygon fill="#07ACEA" points="201.5738,1499.8682 167.9413,1501.6862 167.4574,1505.3159 210.5738,1556.8682 	"/>
	<polygon fill="#0461C8" points="167.4574,1505.3159 161.2787,1551.6792 210.5738,1556.8682 	"/>
	<polygon fill="#D01891" points="206.5738,1276.8682 196.0415,1290.8296 190.5257,1332.218 212.5738,1330.8682 	"/>
	<polygon fill="#0BA251" points="198.5738,1447.8682 168.8146,1495.1329 167.9413,1501.6862 201.5738,1499.8682 	"/>
	<polygon fill="#FCD23D" points="201.5738,1356.8682 185.1976,1372.1991 180.5314,1407.2133 199.5738,1411.8682 	"/>
	<polygon fill="#46BAEB" points="195.5738,739.8682 205.5738,690.8682 160.5738,732.8682 	"/>
	<polygon fill="#0461C8" points="197.9447,1276.5486 196.0415,1290.8296 206.5738,1276.8682 	"/>
	<polygon fill="#0461C8" points="152.5738,553.8682 150.5738,608.8682 208.5738,560.8682 	"/>
	<path fill="#B261BD" d="M206.1756,362.275c-1.0225,1.7946-1.9912,3.6266-2.9114,5.4904l5.3096,4.1028L206.1756,362.275z"/>
	<polygon fill="#E4282E" points="161.5738,1593.8682 207.5738,1593.8682 210.5738,1556.8682 	"/>
	<path fill="#D01891" d="M161.5738,1593.8682l19.6431,27.6229c4.8289,2.8163,10.2113,4.8082,15.9739,5.7516l10.3831-33.3745
		H161.5738z"/>
	<path fill="#0BA251" d="M203.2643,367.7654c-0.8811,1.7844-1.7253,3.5925-2.509,5.4377l7.8186-1.335L203.2643,367.7654z"/>
	<polygon fill="#E4282E" points="209.5738,1241.8682 202.635,1241.3541 198.7042,1270.8501 206.5738,1276.8682 	"/>
	<path fill="#46BAEB" d="M210.5738,1556.8682l-49.2952-5.189l-3.0524,22.9047c-0.0367,0.2758-0.0551,0.549-0.0869,0.8241
		l3.4344,18.4602L210.5738,1556.8682z"/>
	<polygon fill="#9E58A2" points="212.5738,1330.8682 190.5257,1332.218 188.3105,1348.8403 201.5738,1356.8682 	"/>
	<polygon fill="#FDDA65" points="174.204,1454.6917 168.8146,1495.1329 198.5738,1447.8682 	"/>
	<polygon fill="#FDDA65" points="198.7042,1270.8501 197.9447,1276.5486 206.5738,1276.8682 	"/>
	<polygon fill="#0EB3A4" points="202.5738,462.8682 162.4872,502.9548 160.6604,509.2813 207.5738,503.8682 	"/>
	<polygon fill="#FDCD19" points="161.3922,867.692 175.7513,822.1411 159.5738,815.8682 	"/>
	<polygon fill="#85DC34" points="169.5738,644.8682 208.5738,605.8682 150.5738,608.8682 	"/>
	<polygon fill="#3C4192" points="186.9888,1358.7588 185.1976,1372.1991 201.5738,1356.8682 	"/>
	<polygon fill="#85DC34" points="160.5738,732.8682 205.5738,690.8682 146.5738,695.8682 	"/>
	<polygon fill="#DE4F9B" points="174.6488,460.8372 162.4872,502.9548 202.5738,462.8682 	"/>
	<polygon fill="#0BA251" points="203.5738,429.8682 180.0777,442.0359 174.6488,460.8372 202.5738,462.8682 	"/>
	<path fill="#D01891" d="M161.3338,1598.668c3.9381,9.5642,10.9508,17.6138,19.8831,22.8231l-19.6431-27.6229L161.3338,1598.668z"/>
	<polygon fill="#3C4192" points="205.5738,690.8682 195.5738,655.8682 146.5738,695.8682 	"/>
	<polygon fill="#843895" points="199.5738,1411.8682 180.5314,1407.2133 178.037,1425.9309 198.5738,1447.8682 	"/>
	<polygon fill="#85DC34" points="185.8998,421.8728 180.0777,442.0359 203.5738,429.8682 	"/>
	<polygon fill="#0461C8" points="146.5738,695.8682 195.5738,655.8682 169.5738,644.8682 	"/>
	<polygon fill="#FDDA65" points="162.5738,783.8682 195.5738,739.8682 160.5738,732.8682 	"/>
	<polygon fill="#FDCD19" points="178.037,1425.9309 174.204,1454.6917 198.5738,1447.8682 	"/>
	<polygon fill="#3C4192" points="162.5738,783.8682 190.7801,774.4661 196.975,754.814 195.5738,739.8682 	"/>
	<polygon fill="#D01891" points="188.3105,1348.8403 186.9888,1358.7588 201.5738,1356.8682 	"/>
	<polygon fill="#3C4192" points="152.5738,553.8682 144.1275,566.5376 134.2598,600.7112 150.5738,608.8682 	"/>
	<path fill="#07ACEA" d="M110.0954,935.0764c15.5848-1.7657,28.3815-12.1144,37.3827-27.7499
		c0.0001-0.0002,0.0001-0.0003,0.0002-0.0005l-37.9045-1.4579L110.0954,935.0764z"/>
	<polygon fill="#3C4192" points="116.5738,837.8682 160.1175,871.7355 161.3922,867.692 159.5738,815.8682 	"/>
	<polygon fill="#46BAEB" points="120.5738,863.8682 159.8779,872.4959 160.1175,871.7355 116.5738,837.8682 	"/>
	<polygon fill="#9E58A2" points="118.5738,740.8682 162.5738,783.8682 160.5738,732.8682 	"/>
	<polygon fill="#B261BD" points="150.5738,608.8682 123.5738,650.8682 169.5738,644.8682 	"/>
	<polygon fill="#0BA251" points="169.5738,644.8682 123.5738,650.8682 146.5738,695.8682 	"/>
	<polygon fill="#87E7E3" points="154.0538,532.1609 149.0348,549.5427 152.5738,553.8682 	"/>
	<path fill="#87E7E3" d="M158.1394,1575.408c-0.7382,6.3721-0.1696,12.5677,1.4847,18.3408l1.9497,0.1194L158.1394,1575.408z"/>
	<path fill="#FDDA65" d="M160.0599,1595.2061c0.3784,1.1747,0.8069,2.3276,1.2739,3.4619l0.24-4.7998L160.0599,1595.2061z"/>
	<polygon fill="#0BA251" points="120.5738,789.8682 162.5738,783.8682 118.5738,740.8682 	"/>
	<path fill="#46BAEB" d="M159.6241,1593.7488c0.1398,0.488,0.2805,0.9755,0.4358,1.4573l1.5139-1.3379L159.6241,1593.7488z"/>
	<path fill="#D01891" d="M109.5738,905.8682l37.9045,1.4579c1.7913-3.1127,3.2434-6.4201,4.4485-9.8108l-31.353-33.6471
		L109.5738,905.8682z"/>
	<path fill="#3C4192" d="M151.9269,897.5153c0.2836-0.798,0.566-1.5967,0.8217-2.4031l7.1294-22.6162l-39.3041-8.6277
		L151.9269,897.5153z"/>
	<polygon fill="#FCD23D" points="159.5738,815.8682 162.5738,783.8682 120.5738,789.8682 	"/>
	<polygon fill="#FDCD19" points="146.5738,695.8682 118.5738,740.8682 160.5738,732.8682 	"/>
	<polygon fill="#9E58A2" points="116.5738,837.8682 159.5738,815.8682 120.5738,789.8682 	"/>
	<polygon fill="#9E58A2" points="123.5738,650.8682 114.5738,690.8682 146.5738,695.8682 	"/>
	<polygon fill="#87E7E3" points="147.8523,553.6378 144.1275,566.5376 152.5738,553.8682 	"/>
	<polygon fill="#46BAEB" points="150.5738,608.8682 134.2598,600.7112 123.829,636.8351 123.5738,650.8682 	"/>
	<polygon fill="#46BAEB" points="149.0348,549.5427 147.8523,553.6378 152.5738,553.8682 	"/>
	<polygon fill="#0EB3A4" points="114.5738,690.8682 118.5738,740.8682 146.5738,695.8682 	"/>
	<path fill="#B261BD" d="M72.5738,916.8682l11.5842,13.7181c1.0886,0.4886,2.1967,0.9542,3.3407,1.3767
		c8.0347,2.9712,15.5965,3.9066,22.5967,3.1135l-0.5216-29.2083L72.5738,916.8682z"/>
	<polygon fill="#85DC34" points="114.5738,690.8682 108.0473,691.4897 99.3423,721.6367 118.5738,740.8682 	"/>
	<polygon fill="#EC752E" points="99.3423,721.6367 95.5986,734.6022 118.5738,740.8682 	"/>
	<polygon fill="#9E58A2" points="109.5738,905.8682 120.5738,863.8682 76.5738,878.8682 	"/>
	<polygon fill="#3C4192" points="66.5738,836.8682 116.5738,837.8682 120.5738,789.8682 	"/>
	<polygon fill="#0461C8" points="118.5738,740.8682 88.3313,759.7697 83.6877,775.8514 120.5738,789.8682 	"/>
	<polygon fill="#E4282E" points="123.5738,650.8682 119.961,650.2306 109.8262,685.3292 114.5738,690.8682 	"/>
	<polygon fill="#46BAEB" points="123.829,636.8351 119.961,650.2306 123.5738,650.8682 	"/>
	<polygon fill="#87E7E3" points="109.8262,685.3292 108.0473,691.4897 114.5738,690.8682 	"/>
	<polygon fill="#46BAEB" points="120.5738,789.8682 83.6877,775.8514 66.7079,834.6555 66.5738,836.8682 	"/>
	<polygon fill="#46BAEB" points="120.5738,863.8682 116.5738,837.8682 76.5738,878.8682 	"/>
	<polygon fill="#EC752E" points="76.5738,878.8682 116.5738,837.8682 66.5738,836.8682 	"/>
	<path fill="#3C4192" d="M71.624,922.4315c3.6304,3.3064,7.8197,6.0387,12.534,8.1547l-11.5842-13.7181L71.624,922.4315z"/>
	<polygon fill="#0EB3A4" points="95.5986,734.6022 88.3313,759.7697 118.5738,740.8682 	"/>
	<polygon fill="#07ACEA" points="72.5738,916.8682 109.5738,905.8682 76.5738,878.8682 	"/>
	<polygon fill="#D01891" points="66.7079,834.6555 66.1197,836.6927 66.5738,836.8682 	"/>
	<path fill="#0BA251" d="M76.5738,878.8682l-20.649,11.8994c0.2645,2.0284,0.6342,4.0464,1.1139,6.0461
		c1.8138,7.5281,4.863,14.0922,9.0441,19.5823l6.4911,0.4721L76.5738,878.8682z"/>
	<path fill="#85DC34" d="M66.5738,836.8682l-0.6252,0.4167l-7.8864,27.312c-0.6128,2.1208-1.1182,4.2686-1.5223,6.432
		l20.0338,7.8393L66.5738,836.8682z"/>
	<path fill="#0BA251" d="M56.54,871.0289c-1.2172,6.5164-1.4704,13.1818-0.6152,19.7387l20.649-11.8994L56.54,871.0289z"/>
	<path fill="#3C4192" d="M66.0827,916.3961c1.6663,2.188,3.5215,4.196,5.5413,6.0355l0.9498-5.5634L66.0827,916.3961z"/>
	<polygon fill="#46BAEB" points="66.1197,836.6927 65.9487,837.2849 66.5738,836.8682 	"/>
</g>
</svg>
